<?xml version="1.0" encoding="UTF-8"?>
<svg xmlns="http://www.w3.org/2000/svg" xmlns:xlink="http://www.w3.org/1999/xlink" width="384pt" height="383.999986pt" viewBox="0 0 384 383.999986" version="1.2">
<defs>
<clipPath id="clip1">
  <path d="M 41.199219 46.226562 L 342.347656 46.226562 L 342.347656 337.976562 L 41.199219 337.976562 Z M 41.199219 46.226562 "/>
</clipPath>
<clipPath id="clip2">
  <path d="M 191.773438 156.972656 C 196.515625 156.972656 201.8125 165.582031 201.8125 177.105469 C 201.8125 188.632812 196.515625 197.242188 191.773438 197.242188 C 187.035156 197.242188 181.734375 188.632812 181.734375 177.105469 C 181.734375 165.582031 187.035156 156.972656 191.773438 156.972656 Z M 191.773438 207.308594 C 203.03125 207.308594 211.851562 194.042969 211.851562 177.105469 C 211.851562 160.171875 203.03125 146.902344 191.773438 146.902344 C 180.515625 146.902344 171.699219 160.171875 171.699219 177.105469 C 171.699219 194.042969 180.515625 207.308594 191.773438 207.308594 Z M 267.0625 252.613281 C 267.0625 255.394531 264.8125 257.648438 262.042969 257.648438 L 121.507812 257.648438 C 118.734375 257.648438 116.488281 255.394531 116.488281 252.613281 C 116.488281 249.832031 118.734375 247.578125 121.507812 247.578125 L 262.042969 247.578125 C 264.8125 247.578125 267.0625 249.832031 267.0625 252.613281 Z M 257.023438 272.75 C 257.023438 275.527344 254.773438 277.78125 252.003906 277.78125 L 141.582031 277.78125 C 138.8125 277.78125 136.5625 275.527344 136.5625 272.75 C 136.5625 269.96875 138.8125 267.714844 141.582031 267.714844 L 252.003906 267.714844 C 254.773438 267.714844 257.023438 269.96875 257.023438 272.75 Z M 161.660156 227.445312 L 221.890625 227.445312 C 224.660156 227.445312 226.90625 229.699219 226.90625 232.476562 C 226.90625 235.257812 224.660156 237.511719 221.890625 237.511719 L 161.660156 237.511719 C 158.886719 237.511719 156.640625 235.257812 156.640625 232.476562 C 156.640625 229.699219 158.886719 227.445312 161.660156 227.445312 Z M 221.890625 182.140625 L 221.890625 151.9375 C 221.890625 149.15625 224.136719 146.902344 226.90625 146.902344 C 229.679688 146.902344 231.925781 149.15625 231.925781 151.9375 L 231.925781 177.105469 L 241.964844 177.105469 L 241.964844 162.003906 C 241.964844 159.226562 244.210938 156.972656 246.984375 156.972656 C 249.757812 156.972656 252.003906 159.226562 252.003906 162.003906 L 252.003906 177.105469 L 257.023438 177.105469 C 259.792969 177.105469 262.042969 179.359375 262.042969 182.140625 C 262.042969 184.917969 259.792969 187.171875 257.023438 187.171875 L 252.003906 187.171875 L 252.003906 202.273438 C 252.003906 205.054688 249.757812 207.308594 246.984375 207.308594 C 244.210938 207.308594 241.964844 205.054688 241.964844 202.273438 L 241.964844 187.171875 L 226.90625 187.171875 C 224.136719 187.171875 221.890625 184.917969 221.890625 182.140625 Z M 121.507812 182.140625 L 121.507812 151.9375 C 121.507812 149.15625 123.753906 146.902344 126.527344 146.902344 C 129.296875 146.902344 131.542969 149.15625 131.542969 151.9375 L 131.542969 177.105469 L 141.582031 177.105469 L 141.582031 162.003906 C 141.582031 159.226562 143.832031 156.972656 146.601562 156.972656 C 149.375 156.972656 151.621094 159.226562 151.621094 162.003906 L 151.621094 177.105469 L 156.640625 177.105469 C 159.410156 177.105469 161.660156 179.359375 161.660156 182.140625 C 161.660156 184.917969 159.410156 187.171875 156.640625 187.171875 L 151.621094 187.171875 L 151.621094 202.273438 C 151.621094 205.054688 149.375 207.308594 146.601562 207.308594 C 143.832031 207.308594 141.582031 205.054688 141.582031 202.273438 L 141.582031 187.171875 L 126.527344 187.171875 C 123.753906 187.171875 121.507812 184.917969 121.507812 182.140625 Z M 61.277344 71.394531 C 61.277344 68.617188 63.523438 66.363281 66.296875 66.363281 C 69.066406 66.363281 71.316406 68.617188 71.316406 71.394531 C 71.316406 74.175781 69.066406 76.429688 66.296875 76.429688 C 63.523438 76.429688 61.277344 74.175781 61.277344 71.394531 Z M 81.351562 71.394531 C 81.351562 68.617188 83.601562 66.363281 86.371094 66.363281 C 89.144531 66.363281 91.390625 68.617188 91.390625 71.394531 C 91.390625 74.175781 89.144531 76.429688 86.371094 76.429688 C 83.601562 76.429688 81.351562 74.175781 81.351562 71.394531 Z M 101.429688 71.394531 C 101.429688 68.617188 103.675781 66.363281 106.449219 66.363281 C 109.222656 66.363281 111.46875 68.617188 111.46875 71.394531 C 111.46875 74.175781 109.222656 76.429688 106.449219 76.429688 C 103.675781 76.429688 101.429688 74.175781 101.429688 71.394531 Z M 327.289062 328.121094 L 56.257812 328.121094 C 53.492188 328.121094 51.238281 325.863281 51.238281 323.085938 L 51.238281 96.566406 L 332.308594 96.566406 L 332.308594 323.085938 C 332.308594 325.863281 330.058594 328.121094 327.289062 328.121094 Z M 56.257812 56.292969 L 327.289062 56.292969 C 330.058594 56.292969 332.308594 58.554688 332.308594 61.328125 L 332.308594 86.496094 L 51.238281 86.496094 L 51.238281 61.328125 C 51.238281 58.554688 53.492188 56.292969 56.257812 56.292969 Z M 327.289062 46.226562 L 56.257812 46.226562 C 47.953125 46.226562 41.199219 53 41.199219 61.328125 L 41.199219 323.085938 C 41.199219 331.414062 47.953125 338.1875 56.257812 338.1875 L 327.289062 338.1875 C 335.59375 338.1875 342.347656 331.414062 342.347656 323.085938 L 342.347656 61.328125 C 342.347656 53 335.59375 46.226562 327.289062 46.226562 Z M 327.289062 46.226562 "/>
</clipPath>
<clipPath id="clip3">
  <path d="M 191.773438 156.972656 C 196.515625 156.972656 201.8125 165.582031 201.8125 177.105469 C 201.8125 188.632812 196.515625 197.242188 191.773438 197.242188 C 187.035156 197.242188 181.734375 188.632812 181.734375 177.105469 C 181.734375 165.582031 187.035156 156.972656 191.773438 156.972656 Z M 191.773438 207.308594 C 203.03125 207.308594 211.851562 194.042969 211.851562 177.105469 C 211.851562 160.171875 203.03125 146.902344 191.773438 146.902344 C 180.515625 146.902344 171.699219 160.171875 171.699219 177.105469 C 171.699219 194.042969 180.515625 207.308594 191.773438 207.308594 Z M 267.0625 252.613281 C 267.0625 255.394531 264.8125 257.648438 262.042969 257.648438 L 121.507812 257.648438 C 118.734375 257.648438 116.488281 255.394531 116.488281 252.613281 C 116.488281 249.832031 118.734375 247.578125 121.507812 247.578125 L 262.042969 247.578125 C 264.8125 247.578125 267.0625 249.832031 267.0625 252.613281 Z M 257.023438 272.75 C 257.023438 275.527344 254.773438 277.78125 252.003906 277.78125 L 141.582031 277.78125 C 138.8125 277.78125 136.5625 275.527344 136.5625 272.75 C 136.5625 269.96875 138.8125 267.714844 141.582031 267.714844 L 252.003906 267.714844 C 254.773438 267.714844 257.023438 269.96875 257.023438 272.75 Z M 161.660156 227.445312 L 221.890625 227.445312 C 224.660156 227.445312 226.90625 229.699219 226.90625 232.476562 C 226.90625 235.257812 224.660156 237.511719 221.890625 237.511719 L 161.660156 237.511719 C 158.886719 237.511719 156.640625 235.257812 156.640625 232.476562 C 156.640625 229.699219 158.886719 227.445312 161.660156 227.445312 Z M 221.890625 182.140625 L 221.890625 151.9375 C 221.890625 149.15625 224.136719 146.902344 226.90625 146.902344 C 229.679688 146.902344 231.925781 149.15625 231.925781 151.9375 L 231.925781 177.105469 L 241.964844 177.105469 L 241.964844 162.003906 C 241.964844 159.226562 244.210938 156.972656 246.984375 156.972656 C 249.757812 156.972656 252.003906 159.226562 252.003906 162.003906 L 252.003906 177.105469 L 257.023438 177.105469 C 259.792969 177.105469 262.042969 179.359375 262.042969 182.140625 C 262.042969 184.917969 259.792969 187.171875 257.023438 187.171875 L 252.003906 187.171875 L 252.003906 202.273438 C 252.003906 205.054688 249.757812 207.308594 246.984375 207.308594 C 244.210938 207.308594 241.964844 205.054688 241.964844 202.273438 L 241.964844 187.171875 L 226.90625 187.171875 C 224.136719 187.171875 221.890625 184.917969 221.890625 182.140625 Z M 121.507812 182.140625 L 121.507812 151.9375 C 121.507812 149.15625 123.753906 146.902344 126.527344 146.902344 C 129.296875 146.902344 131.542969 149.15625 131.542969 151.9375 L 131.542969 177.105469 L 141.582031 177.105469 L 141.582031 162.003906 C 141.582031 159.226562 143.832031 156.972656 146.601562 156.972656 C 149.375 156.972656 151.621094 159.226562 151.621094 162.003906 L 151.621094 177.105469 L 156.640625 177.105469 C 159.410156 177.105469 161.660156 179.359375 161.660156 182.140625 C 161.660156 184.917969 159.410156 187.171875 156.640625 187.171875 L 151.621094 187.171875 L 151.621094 202.273438 C 151.621094 205.054688 149.375 207.308594 146.601562 207.308594 C 143.832031 207.308594 141.582031 205.054688 141.582031 202.273438 L 141.582031 187.171875 L 126.527344 187.171875 C 123.753906 187.171875 121.507812 184.917969 121.507812 182.140625 Z M 61.277344 71.394531 C 61.277344 68.617188 63.523438 66.363281 66.296875 66.363281 C 69.066406 66.363281 71.316406 68.617188 71.316406 71.394531 C 71.316406 74.175781 69.066406 76.429688 66.296875 76.429688 C 63.523438 76.429688 61.277344 74.175781 61.277344 71.394531 Z M 81.351562 71.394531 C 81.351562 68.617188 83.601562 66.363281 86.371094 66.363281 C 89.144531 66.363281 91.390625 68.617188 91.390625 71.394531 C 91.390625 74.175781 89.144531 76.429688 86.371094 76.429688 C 83.601562 76.429688 81.351562 74.175781 81.351562 71.394531 Z M 101.429688 71.394531 C 101.429688 68.617188 103.675781 66.363281 106.449219 66.363281 C 109.222656 66.363281 111.46875 68.617188 111.46875 71.394531 C 111.46875 74.175781 109.222656 76.429688 106.449219 76.429688 C 103.675781 76.429688 101.429688 74.175781 101.429688 71.394531 Z M 327.289062 328.121094 L 56.257812 328.121094 C 53.492188 328.121094 51.238281 325.863281 51.238281 323.085938 L 51.238281 96.566406 L 332.308594 96.566406 L 332.308594 323.085938 C 332.308594 325.863281 330.058594 328.121094 327.289062 328.121094 Z M 56.257812 56.292969 L 327.289062 56.292969 C 330.058594 56.292969 332.308594 58.554688 332.308594 61.328125 L 332.308594 86.496094 L 51.238281 86.496094 L 51.238281 61.328125 C 51.238281 58.554688 53.492188 56.292969 56.257812 56.292969 Z M 327.289062 46.226562 L 56.257812 46.226562 C 47.953125 46.226562 41.199219 53 41.199219 61.328125 L 41.199219 323.085938 C 41.199219 331.414062 47.953125 338.1875 56.257812 338.1875 L 327.289062 338.1875 C 335.59375 338.1875 342.347656 331.414062 342.347656 323.085938 L 342.347656 61.328125 C 342.347656 53 335.59375 46.226562 327.289062 46.226562 "/>
</clipPath>
<linearGradient id="linear0" gradientUnits="userSpaceOnUse" x1="0.000722999" y1="0" x2="1" y2="0" gradientTransform="matrix(0,-291.961049,291.108909,0,191.77409,338.188094)">
<stop offset="0" style="stop-color:rgb(32.499695%,77.999878%,92.253113%);stop-opacity:1;"/>
<stop offset="0.00390625" style="stop-color:rgb(32.525635%,77.999878%,92.575073%);stop-opacity:1;"/>
<stop offset="0.0078125" style="stop-color:rgb(32.551575%,77.999878%,92.89856%);stop-opacity:1;"/>
<stop offset="0.0117188" style="stop-color:rgb(32.725525%,77.798462%,92.881775%);stop-opacity:1;"/>
<stop offset="0.015625" style="stop-color:rgb(32.899475%,77.598572%,92.86499%);stop-opacity:1;"/>
<stop offset="0.0195313" style="stop-color:rgb(32.756042%,77.391052%,92.681885%);stop-opacity:1;"/>
<stop offset="0.0234375" style="stop-color:rgb(32.614136%,77.185059%,92.498779%);stop-opacity:1;"/>
<stop offset="0.0273437" style="stop-color:rgb(32.756042%,76.994324%,92.698669%);stop-opacity:1;"/>
<stop offset="0.03125" style="stop-color:rgb(32.899475%,76.803589%,92.89856%);stop-opacity:1;"/>
<stop offset="0.0351562" style="stop-color:rgb(33.099365%,76.412964%,92.698669%);stop-opacity:1;"/>
<stop offset="0.0390625" style="stop-color:rgb(33.299255%,76.023865%,92.498779%);stop-opacity:1;"/>
<stop offset="0.046875" style="stop-color:rgb(33.299255%,75.83313%,92.526245%);stop-opacity:1;"/>
<stop offset="0.0546875" style="stop-color:rgb(33.317566%,75.45166%,92.726135%);stop-opacity:1;"/>
<stop offset="0.0585938" style="stop-color:rgb(33.529663%,74.868774%,92.89856%);stop-opacity:1;"/>
<stop offset="0.0625" style="stop-color:rgb(33.72345%,74.475098%,92.89856%);stop-opacity:1;"/>
<stop offset="0.0664062" style="stop-color:rgb(33.911133%,74.03717%,92.849731%);stop-opacity:1;"/>
<stop offset="0.0703125" style="stop-color:rgb(34.098816%,73.600769%,92.800903%);stop-opacity:1;"/>
<stop offset="0.0742188" style="stop-color:rgb(34.098816%,73.210144%,92.619324%);stop-opacity:1;"/>
<stop offset="0.078125" style="stop-color:rgb(34.098816%,72.819519%,92.43927%);stop-opacity:1;"/>
<stop offset="0.0820312" style="stop-color:rgb(34.127808%,72.479248%,92.118835%);stop-opacity:1;"/>
<stop offset="0.0859375" style="stop-color:rgb(34.158325%,72.138977%,91.799927%);stop-opacity:1;"/>
<stop offset="0.0898437" style="stop-color:rgb(34.54895%,71.748352%,91.598511%);stop-opacity:1;"/>
<stop offset="0.09375" style="stop-color:rgb(34.939575%,71.359253%,91.398621%);stop-opacity:1;"/>
<stop offset="0.0976563" style="stop-color:rgb(35.319519%,70.96405%,91.19873%);stop-opacity:1;"/>
<stop offset="0.101562" style="stop-color:rgb(35.699463%,70.570374%,90.99884%);stop-opacity:1;"/>
<stop offset="0.105469" style="stop-color:rgb(35.749817%,70.333862%,90.74707%);stop-opacity:1;"/>
<stop offset="0.109375" style="stop-color:rgb(35.801697%,70.097351%,90.496826%);stop-opacity:1;"/>
<stop offset="0.113281" style="stop-color:rgb(35.990906%,69.706726%,90.306091%);stop-opacity:1;"/>
<stop offset="0.117188" style="stop-color:rgb(36.181641%,69.316101%,90.116882%);stop-opacity:1;"/>
<stop offset="0.121094" style="stop-color:rgb(36.372375%,68.925476%,89.926147%);stop-opacity:1;"/>
<stop offset="0.125" style="stop-color:rgb(36.56311%,68.536377%,89.735413%);stop-opacity:1;"/>
<stop offset="0.128906" style="stop-color:rgb(36.947632%,68.167114%,89.544678%);stop-opacity:1;"/>
<stop offset="0.132812" style="stop-color:rgb(37.332153%,67.799377%,89.355469%);stop-opacity:1;"/>
<stop offset="0.136719" style="stop-color:rgb(37.664795%,67.636108%,89.164734%);stop-opacity:1;"/>
<stop offset="0.140625" style="stop-color:rgb(37.998962%,67.474365%,88.973999%);stop-opacity:1;"/>
<stop offset="0.144531" style="stop-color:rgb(38.250732%,67.033386%,88.586426%);stop-opacity:1;"/>
<stop offset="0.148438" style="stop-color:rgb(38.504028%,66.593933%,88.198853%);stop-opacity:1;"/>
<stop offset="0.152344" style="stop-color:rgb(38.694763%,66.203308%,87.998962%);stop-opacity:1;"/>
<stop offset="0.15625" style="stop-color:rgb(38.885498%,65.812683%,87.799072%);stop-opacity:1;"/>
<stop offset="0.160156" style="stop-color:rgb(39.074707%,65.455627%,87.649536%);stop-opacity:1;"/>
<stop offset="0.164062" style="stop-color:rgb(39.265442%,65.098572%,87.5%);stop-opacity:1;"/>
<stop offset="0.167969" style="stop-color:rgb(39.631653%,64.874268%,87.298584%);stop-opacity:1;"/>
<stop offset="0.171875" style="stop-color:rgb(39.99939%,64.651489%,87.098694%);stop-opacity:1;"/>
<stop offset="0.175781" style="stop-color:rgb(40.19928%,64.260864%,86.898804%);stop-opacity:1;"/>
<stop offset="0.179687" style="stop-color:rgb(40.39917%,63.871765%,86.698914%);stop-opacity:1;"/>
<stop offset="0.183594" style="stop-color:rgb(40.605164%,63.679504%,86.499023%);stop-opacity:1;"/>
<stop offset="0.1875" style="stop-color:rgb(40.811157%,63.487244%,86.299133%);stop-opacity:1;"/>
<stop offset="0.191406" style="stop-color:rgb(41.204834%,63.059998%,86.053467%);stop-opacity:1;"/>
<stop offset="0.195313" style="stop-color:rgb(41.598511%,62.632751%,85.809326%);stop-opacity:1;"/>
<stop offset="0.199219" style="stop-color:rgb(41.833496%,62.280273%,85.618591%);stop-opacity:1;"/>
<stop offset="0.203125" style="stop-color:rgb(42.070007%,61.929321%,85.429382%);stop-opacity:1;"/>
<stop offset="0.207031" style="stop-color:rgb(42.410278%,61.564636%,85.238647%);stop-opacity:1;"/>
<stop offset="0.210938" style="stop-color:rgb(42.750549%,61.199951%,85.047913%);stop-opacity:1;"/>
<stop offset="0.214844" style="stop-color:rgb(43.139648%,60.983276%,84.857178%);stop-opacity:1;"/>
<stop offset="0.21875" style="stop-color:rgb(43.530273%,60.768127%,84.667969%);stop-opacity:1;"/>
<stop offset="0.222656" style="stop-color:rgb(43.922424%,60.374451%,84.475708%);stop-opacity:1;"/>
<stop offset="0.226562" style="stop-color:rgb(44.316101%,59.9823%,84.283447%);stop-opacity:1;"/>
<stop offset="0.230469" style="stop-color:rgb(44.754028%,59.544373%,83.891296%);stop-opacity:1;"/>
<stop offset="0.234375" style="stop-color:rgb(45.191956%,59.106445%,83.499146%);stop-opacity:1;"/>
<stop offset="0.242188" style="stop-color:rgb(45.38269%,58.91571%,83.462524%);stop-opacity:1;"/>
<stop offset="0.246094" style="stop-color:rgb(45.962524%,58.334351%,83.235168%);stop-opacity:1;"/>
<stop offset="0.25" style="stop-color:rgb(46.353149%,57.945251%,83.044434%);stop-opacity:1;"/>
<stop offset="0.253906" style="stop-color:rgb(46.743774%,57.60498%,82.720947%);stop-opacity:1;"/>
<stop offset="0.257812" style="stop-color:rgb(47.134399%,57.264709%,82.398987%);stop-opacity:1;"/>
<stop offset="0.261719" style="stop-color:rgb(47.47467%,56.874084%,82.199097%);stop-opacity:1;"/>
<stop offset="0.265625" style="stop-color:rgb(47.814941%,56.483459%,81.999207%);stop-opacity:1;"/>
<stop offset="0.269531" style="stop-color:rgb(48.054504%,56.04248%,81.750488%);stop-opacity:1;"/>
<stop offset="0.273437" style="stop-color:rgb(48.295593%,55.603027%,81.503296%);stop-opacity:1;"/>
<stop offset="0.277344" style="stop-color:rgb(48.686218%,55.212402%,81.312561%);stop-opacity:1;"/>
<stop offset="0.28125" style="stop-color:rgb(49.076843%,54.821777%,81.121826%);stop-opacity:1;"/>
<stop offset="0.289063" style="stop-color:rgb(49.266052%,54.631042%,80.931091%);stop-opacity:1;"/>
<stop offset="0.292969" style="stop-color:rgb(49.847412%,54.051208%,80.551147%);stop-opacity:1;"/>
<stop offset="0.296875" style="stop-color:rgb(50.238037%,53.660583%,80.360413%);stop-opacity:1;"/>
<stop offset="0.300781" style="stop-color:rgb(50.627136%,53.279114%,80.178833%);stop-opacity:1;"/>
<stop offset="0.304688" style="stop-color:rgb(51.017761%,52.89917%,79.998779%);stop-opacity:1;"/>
<stop offset="0.308594" style="stop-color:rgb(51.208496%,52.69928%,79.798889%);stop-opacity:1;"/>
<stop offset="0.3125" style="stop-color:rgb(51.399231%,52.49939%,79.598999%);stop-opacity:1;"/>
<stop offset="0.316406" style="stop-color:rgb(51.799011%,52.108765%,79.399109%);stop-opacity:1;"/>
<stop offset="0.320312" style="stop-color:rgb(52.198792%,51.71814%,79.199219%);stop-opacity:1;"/>
<stop offset="0.324219" style="stop-color:rgb(52.378845%,51.358032%,78.999329%);stop-opacity:1;"/>
<stop offset="0.328125" style="stop-color:rgb(52.560425%,50.999451%,78.799438%);stop-opacity:1;"/>
<stop offset="0.332031" style="stop-color:rgb(52.749634%,50.778198%,78.599548%);stop-opacity:1;"/>
<stop offset="0.335938" style="stop-color:rgb(52.940369%,50.556946%,78.399658%);stop-opacity:1;"/>
<stop offset="0.339844" style="stop-color:rgb(53.330994%,50.166321%,78.199768%);stop-opacity:1;"/>
<stop offset="0.34375" style="stop-color:rgb(53.721619%,49.777222%,77.999878%);stop-opacity:1;"/>
<stop offset="0.347656" style="stop-color:rgb(53.912354%,49.586487%,77.798462%);stop-opacity:1;"/>
<stop offset="0.351562" style="stop-color:rgb(54.103088%,49.395752%,77.598572%);stop-opacity:1;"/>
<stop offset="0.355469" style="stop-color:rgb(54.501343%,48.954773%,77.566528%);stop-opacity:1;"/>
<stop offset="0.359375" style="stop-color:rgb(54.899597%,48.51532%,77.536011%);stop-opacity:1;"/>
<stop offset="0.367187" style="stop-color:rgb(54.931641%,48.324585%,77.384949%);stop-opacity:1;"/>
<stop offset="0.371094" style="stop-color:rgb(55.331421%,47.793579%,77.044678%);stop-opacity:1;"/>
<stop offset="0.375" style="stop-color:rgb(55.699158%,47.453308%,76.853943%);stop-opacity:1;"/>
<stop offset="0.378906" style="stop-color:rgb(55.911255%,47.076416%,76.676941%);stop-opacity:1;"/>
<stop offset="0.382813" style="stop-color:rgb(56.124878%,46.699524%,76.499939%);stop-opacity:1;"/>
<stop offset="0.386719" style="stop-color:rgb(56.510925%,46.696472%,76.298523%);stop-opacity:1;"/>
<stop offset="0.390625" style="stop-color:rgb(56.898499%,46.69342%,76.098633%);stop-opacity:1;"/>
<stop offset="0.394531" style="stop-color:rgb(57.098389%,46.252441%,76.054382%);stop-opacity:1;"/>
<stop offset="0.398438" style="stop-color:rgb(57.299805%,45.811462%,76.011658%);stop-opacity:1;"/>
<stop offset="0.40625" style="stop-color:rgb(57.48291%,45.620728%,75.820923%);stop-opacity:1;"/>
<stop offset="0.410156" style="stop-color:rgb(57.85675%,45.065308%,75.465393%);stop-opacity:1;"/>
<stop offset="0.414062" style="stop-color:rgb(58.047485%,44.699097%,75.299072%);stop-opacity:1;"/>
<stop offset="0.417969" style="stop-color:rgb(58.23822%,44.499207%,75.283813%);stop-opacity:1;"/>
<stop offset="0.421875" style="stop-color:rgb(58.428955%,44.299316%,75.270081%);stop-opacity:1;"/>
<stop offset="0.425781" style="stop-color:rgb(58.818054%,44.093323%,75.079346%);stop-opacity:1;"/>
<stop offset="0.429688" style="stop-color:rgb(59.208679%,43.888855%,74.888611%);stop-opacity:1;"/>
<stop offset="0.433594" style="stop-color:rgb(59.599304%,43.49823%,74.693298%);stop-opacity:1;"/>
<stop offset="0.4375" style="stop-color:rgb(59.989929%,43.109131%,74.499512%);stop-opacity:1;"/>
<stop offset="0.441406" style="stop-color:rgb(60.394287%,42.753601%,74.299622%);stop-opacity:1;"/>
<stop offset="0.445312" style="stop-color:rgb(60.798645%,42.399597%,74.099731%);stop-opacity:1;"/>
<stop offset="0.449219" style="stop-color:rgb(61.024475%,42.373657%,74.073792%);stop-opacity:1;"/>
<stop offset="0.453125" style="stop-color:rgb(61.251831%,42.347717%,74.047852%);stop-opacity:1;"/>
<stop offset="0.457031" style="stop-color:rgb(61.44104%,41.957092%,73.857117%);stop-opacity:1;"/>
<stop offset="0.460937" style="stop-color:rgb(61.631775%,41.566467%,73.666382%);stop-opacity:1;"/>
<stop offset="0.464844" style="stop-color:rgb(62.020874%,41.375732%,73.48175%);stop-opacity:1;"/>
<stop offset="0.46875" style="stop-color:rgb(62.409973%,41.186523%,73.298645%);stop-opacity:1;"/>
<stop offset="0.472656" style="stop-color:rgb(62.75177%,40.992737%,73.298645%);stop-opacity:1;"/>
<stop offset="0.476563" style="stop-color:rgb(63.093567%,40.79895%,73.298645%);stop-opacity:1;"/>
<stop offset="0.480469" style="stop-color:rgb(63.33313%,40.39917%,73.060608%);stop-opacity:1;"/>
<stop offset="0.484375" style="stop-color:rgb(63.574219%,39.99939%,72.824097%);stop-opacity:1;"/>
<stop offset="0.488281" style="stop-color:rgb(63.963318%,39.770508%,72.660828%);stop-opacity:1;"/>
<stop offset="0.492188" style="stop-color:rgb(64.353943%,39.543152%,72.499084%);stop-opacity:1;"/>
<stop offset="0.496094" style="stop-color:rgb(64.744568%,39.352417%,72.485352%);stop-opacity:1;"/>
<stop offset="0.5" style="stop-color:rgb(65.135193%,39.163208%,72.471619%);stop-opacity:1;"/>
<stop offset="0.503906" style="stop-color:rgb(65.325928%,38.780212%,72.33429%);stop-opacity:1;"/>
<stop offset="0.507812" style="stop-color:rgb(65.516663%,38.398743%,72.198486%);stop-opacity:1;"/>
<stop offset="0.511719" style="stop-color:rgb(65.905762%,38.398743%,72.000122%);stop-opacity:1;"/>
<stop offset="0.515625" style="stop-color:rgb(66.296387%,38.398743%,71.801758%);stop-opacity:1;"/>
<stop offset="0.519531" style="stop-color:rgb(66.53595%,38.15918%,71.800232%);stop-opacity:1;"/>
<stop offset="0.523438" style="stop-color:rgb(66.777039%,37.921143%,71.798706%);stop-opacity:1;"/>
<stop offset="0.527344" style="stop-color:rgb(67.137146%,37.759399%,71.769714%);stop-opacity:1;"/>
<stop offset="0.53125" style="stop-color:rgb(67.498779%,37.599182%,71.740723%);stop-opacity:1;"/>
<stop offset="0.539062" style="stop-color:rgb(67.668152%,37.428284%,71.569824%);stop-opacity:1;"/>
<stop offset="0.542969" style="stop-color:rgb(68.228149%,37.068176%,71.199036%);stop-opacity:1;"/>
<stop offset="0.546875" style="stop-color:rgb(68.618774%,36.878967%,70.999146%);stop-opacity:1;"/>
<stop offset="0.550781" style="stop-color:rgb(69.007874%,36.688232%,70.999146%);stop-opacity:1;"/>
<stop offset="0.554687" style="stop-color:rgb(69.398499%,36.499023%,70.999146%);stop-opacity:1;"/>
<stop offset="0.558594" style="stop-color:rgb(69.398499%,36.299133%,70.999146%);stop-opacity:1;"/>
<stop offset="0.5625" style="stop-color:rgb(69.398499%,36.099243%,70.999146%);stop-opacity:1;"/>
<stop offset="0.566406" style="stop-color:rgb(69.830322%,35.86731%,70.799255%);stop-opacity:1;"/>
<stop offset="0.570313" style="stop-color:rgb(70.262146%,35.636902%,70.599365%);stop-opacity:1;"/>
<stop offset="0.574219" style="stop-color:rgb(70.629883%,35.267639%,70.399475%);stop-opacity:1;"/>
<stop offset="0.578125" style="stop-color:rgb(70.999146%,34.899902%,70.199585%);stop-opacity:1;"/>
<stop offset="0.582031" style="stop-color:rgb(71.211243%,34.698486%,70.187378%);stop-opacity:1;"/>
<stop offset="0.585938" style="stop-color:rgb(71.42334%,34.498596%,70.175171%);stop-opacity:1;"/>
<stop offset="0.589844" style="stop-color:rgb(71.812439%,34.295654%,69.987488%);stop-opacity:1;"/>
<stop offset="0.59375" style="stop-color:rgb(72.203064%,34.094238%,69.799805%);stop-opacity:1;"/>
<stop offset="0.597656" style="stop-color:rgb(72.543335%,33.895874%,69.799805%);stop-opacity:1;"/>
<stop offset="0.601563" style="stop-color:rgb(72.883606%,33.699036%,69.799805%);stop-opacity:1;"/>
<stop offset="0.605469" style="stop-color:rgb(73.324585%,33.465576%,69.598389%);stop-opacity:1;"/>
<stop offset="0.609375" style="stop-color:rgb(73.765564%,33.233643%,69.398499%);stop-opacity:1;"/>
<stop offset="0.613281" style="stop-color:rgb(74.154663%,33.042908%,69.37561%);stop-opacity:1;"/>
<stop offset="0.617188" style="stop-color:rgb(74.545288%,32.852173%,69.352722%);stop-opacity:1;"/>
<stop offset="0.621094" style="stop-color:rgb(74.935913%,32.525635%,69.17572%);stop-opacity:1;"/>
<stop offset="0.625" style="stop-color:rgb(75.326538%,32.199097%,68.998718%);stop-opacity:1;"/>
<stop offset="0.628906" style="stop-color:rgb(75.717163%,31.999207%,68.994141%);stop-opacity:1;"/>
<stop offset="0.632812" style="stop-color:rgb(76.107788%,31.799316%,68.991089%);stop-opacity:1;"/>
<stop offset="0.636719" style="stop-color:rgb(76.303101%,31.604004%,68.79425%);stop-opacity:1;"/>
<stop offset="0.640625" style="stop-color:rgb(76.499939%,31.410217%,68.598938%);stop-opacity:1;"/>
<stop offset="0.644531" style="stop-color:rgb(76.925659%,31.169128%,68.399048%);stop-opacity:1;"/>
<stop offset="0.648438" style="stop-color:rgb(77.351379%,30.929565%,68.199158%);stop-opacity:1;"/>
<stop offset="0.652344" style="stop-color:rgb(77.69928%,30.563354%,68.199158%);stop-opacity:1;"/>
<stop offset="0.65625" style="stop-color:rgb(78.048706%,30.198669%,68.199158%);stop-opacity:1;"/>
<stop offset="0.660156" style="stop-color:rgb(78.439331%,29.998779%,67.999268%);stop-opacity:1;"/>
<stop offset="0.664062" style="stop-color:rgb(78.829956%,29.798889%,67.799377%);stop-opacity:1;"/>
<stop offset="0.667969" style="stop-color:rgb(79.220581%,29.592896%,67.7948%);stop-opacity:1;"/>
<stop offset="0.671875" style="stop-color:rgb(79.611206%,29.388428%,67.790222%);stop-opacity:1;"/>
<stop offset="0.675781" style="stop-color:rgb(80.000305%,28.997803%,67.643738%);stop-opacity:1;"/>
<stop offset="0.679688" style="stop-color:rgb(80.39093%,28.607178%,67.498779%);stop-opacity:1;"/>
<stop offset="0.683594" style="stop-color:rgb(80.781555%,28.416443%,67.498779%);stop-opacity:1;"/>
<stop offset="0.6875" style="stop-color:rgb(81.17218%,28.227234%,67.498779%);stop-opacity:1;"/>
<stop offset="0.691406" style="stop-color:rgb(81.611633%,27.992249%,67.298889%);stop-opacity:1;"/>
<stop offset="0.695312" style="stop-color:rgb(82.052612%,27.758789%,67.098999%);stop-opacity:1;"/>
<stop offset="0.699219" style="stop-color:rgb(82.592773%,27.429199%,66.899109%);stop-opacity:1;"/>
<stop offset="0.703125" style="stop-color:rgb(83.132935%,27.099609%,66.699219%);stop-opacity:1;"/>
<stop offset="0.707031" style="stop-color:rgb(83.52356%,26.89209%,66.691589%);stop-opacity:1;"/>
<stop offset="0.710937" style="stop-color:rgb(83.914185%,26.68457%,66.68396%);stop-opacity:1;"/>
<stop offset="0.714844" style="stop-color:rgb(84.303284%,26.293945%,66.491699%);stop-opacity:1;"/>
<stop offset="0.71875" style="stop-color:rgb(84.693909%,25.90332%,66.299438%);stop-opacity:1;"/>
<stop offset="0.722656" style="stop-color:rgb(85.272217%,25.712585%,66.110229%);stop-opacity:1;"/>
<stop offset="0.726562" style="stop-color:rgb(85.850525%,25.523376%,65.922546%);stop-opacity:1;"/>
<stop offset="0.730469" style="stop-color:rgb(86.102295%,25.111389%,65.910339%);stop-opacity:1;"/>
<stop offset="0.734375" style="stop-color:rgb(86.355591%,24.699402%,65.899658%);stop-opacity:1;"/>
<stop offset="0.738281" style="stop-color:rgb(86.726379%,24.499512%,65.699768%);stop-opacity:1;"/>
<stop offset="0.742187" style="stop-color:rgb(87.098694%,24.299622%,65.499878%);stop-opacity:1;"/>
<stop offset="0.746094" style="stop-color:rgb(87.298584%,24.099731%,65.290833%);stop-opacity:1;"/>
<stop offset="0.75" style="stop-color:rgb(87.5%,23.899841%,65.081787%);stop-opacity:1;"/>
<stop offset="0.753906" style="stop-color:rgb(87.64801%,23.899841%,64.691162%);stop-opacity:1;"/>
<stop offset="0.757813" style="stop-color:rgb(87.797546%,23.899841%,64.300537%);stop-opacity:1;"/>
<stop offset="0.761719" style="stop-color:rgb(87.988281%,23.899841%,63.909912%);stop-opacity:1;"/>
<stop offset="0.765625" style="stop-color:rgb(88.179016%,23.899841%,63.519287%);stop-opacity:1;"/>
<stop offset="0.769531" style="stop-color:rgb(88.218689%,23.669434%,63.056946%);stop-opacity:1;"/>
<stop offset="0.773438" style="stop-color:rgb(88.259888%,23.439026%,62.594604%);stop-opacity:1;"/>
<stop offset="0.777344" style="stop-color:rgb(88.449097%,23.268127%,62.075806%);stop-opacity:1;"/>
<stop offset="0.78125" style="stop-color:rgb(88.639832%,23.098755%,61.558533%);stop-opacity:1;"/>
<stop offset="0.785156" style="stop-color:rgb(88.819885%,22.898865%,61.157227%);stop-opacity:1;"/>
<stop offset="0.789063" style="stop-color:rgb(88.999939%,22.698975%,60.75592%);stop-opacity:1;"/>
<stop offset="0.792969" style="stop-color:rgb(89.199829%,22.698975%,60.174561%);stop-opacity:1;"/>
<stop offset="0.796875" style="stop-color:rgb(89.399719%,22.698975%,59.594727%);stop-opacity:1;"/>
<stop offset="0.800781" style="stop-color:rgb(89.399719%,22.555542%,59.005737%);stop-opacity:1;"/>
<stop offset="0.804688" style="stop-color:rgb(89.399719%,22.412109%,58.416748%);stop-opacity:1;"/>
<stop offset="0.808594" style="stop-color:rgb(89.599609%,22.406006%,57.888794%);stop-opacity:1;"/>
<stop offset="0.8125" style="stop-color:rgb(89.7995%,22.399902%,57.362366%);stop-opacity:1;"/>
<stop offset="0.816406" style="stop-color:rgb(89.99939%,22.377014%,56.707764%);stop-opacity:1;"/>
<stop offset="0.820312" style="stop-color:rgb(90.19928%,22.355652%,56.054688%);stop-opacity:1;"/>
<stop offset="0.824219" style="stop-color:rgb(90.39917%,22.177124%,55.651855%);stop-opacity:1;"/>
<stop offset="0.828125" style="stop-color:rgb(90.59906%,21.998596%,55.249023%);stop-opacity:1;"/>
<stop offset="0.832031" style="stop-color:rgb(90.59906%,22.198486%,54.670715%);stop-opacity:1;"/>
<stop offset="0.835938" style="stop-color:rgb(90.59906%,22.399902%,54.093933%);stop-opacity:1;"/>
<stop offset="0.839844" style="stop-color:rgb(90.791321%,22.399902%,53.509521%);stop-opacity:1;"/>
<stop offset="0.84375" style="stop-color:rgb(90.985107%,22.399902%,52.926636%);stop-opacity:1;"/>
<stop offset="0.847656" style="stop-color:rgb(90.991211%,22.198486%,52.391052%);stop-opacity:1;"/>
<stop offset="0.851562" style="stop-color:rgb(90.99884%,21.998596%,51.856995%);stop-opacity:1;"/>
<stop offset="0.855469" style="stop-color:rgb(91.021729%,21.998596%,51.379395%);stop-opacity:1;"/>
<stop offset="0.859375" style="stop-color:rgb(91.046143%,21.998596%,50.90332%);stop-opacity:1;"/>
<stop offset="0.863281" style="stop-color:rgb(91.221619%,21.984863%,50.337219%);stop-opacity:1;"/>
<stop offset="0.867188" style="stop-color:rgb(91.398621%,21.97113%,49.771118%);stop-opacity:1;"/>
<stop offset="0.871094" style="stop-color:rgb(91.598511%,21.784973%,49.180603%);stop-opacity:1;"/>
<stop offset="0.875" style="stop-color:rgb(91.799927%,21.598816%,48.590088%);stop-opacity:1;"/>
<stop offset="0.878906" style="stop-color:rgb(91.993713%,21.403503%,48.052979%);stop-opacity:1;"/>
<stop offset="0.882812" style="stop-color:rgb(92.189026%,21.209717%,47.517395%);stop-opacity:1;"/>
<stop offset="0.886719" style="stop-color:rgb(92.332458%,21.203613%,47.122192%);stop-opacity:1;"/>
<stop offset="0.890625" style="stop-color:rgb(92.477417%,21.199036%,46.728516%);stop-opacity:1;"/>
<stop offset="0.894531" style="stop-color:rgb(92.687988%,21.199036%,46.087646%);stop-opacity:1;"/>
<stop offset="0.898437" style="stop-color:rgb(92.89856%,21.199036%,45.448303%);stop-opacity:1;"/>
<stop offset="0.902344" style="stop-color:rgb(92.913818%,21.199036%,45.040894%);stop-opacity:1;"/>
<stop offset="0.90625" style="stop-color:rgb(92.930603%,21.199036%,44.63501%);stop-opacity:1;"/>
<stop offset="0.910156" style="stop-color:rgb(93.121338%,21.199036%,43.859863%);stop-opacity:1;"/>
<stop offset="0.914062" style="stop-color:rgb(93.312073%,21.199036%,43.086243%);stop-opacity:1;"/>
<stop offset="0.917969" style="stop-color:rgb(93.505859%,21.002197%,42.744446%);stop-opacity:1;"/>
<stop offset="0.921875" style="stop-color:rgb(93.699646%,20.805359%,42.404175%);stop-opacity:1;"/>
<stop offset="0.925781" style="stop-color:rgb(93.885803%,20.802307%,41.827393%);stop-opacity:1;"/>
<stop offset="0.929687" style="stop-color:rgb(94.073486%,20.799255%,41.252136%);stop-opacity:1;"/>
<stop offset="0.933594" style="stop-color:rgb(94.085693%,20.799255%,40.847778%);stop-opacity:1;"/>
<stop offset="0.9375" style="stop-color:rgb(94.099426%,20.799255%,40.444946%);stop-opacity:1;"/>
<stop offset="0.941406" style="stop-color:rgb(94.099426%,20.799255%,39.804077%);stop-opacity:1;"/>
<stop offset="0.945313" style="stop-color:rgb(94.099426%,20.799255%,39.164734%);stop-opacity:1;"/>
<stop offset="0.949219" style="stop-color:rgb(94.099426%,20.799255%,38.774109%);stop-opacity:1;"/>
<stop offset="0.953125" style="stop-color:rgb(94.099426%,20.799255%,38.383484%);stop-opacity:1;"/>
<stop offset="0.957031" style="stop-color:rgb(94.099426%,20.600891%,37.992859%);stop-opacity:1;"/>
<stop offset="0.960938" style="stop-color:rgb(94.099426%,20.402527%,37.602234%);stop-opacity:1;"/>
<stop offset="0.964844" style="stop-color:rgb(94.099426%,20.600891%,37.062073%);stop-opacity:1;"/>
<stop offset="0.96875" style="stop-color:rgb(94.099426%,20.799255%,36.521912%);stop-opacity:1;"/>
<stop offset="0.972656" style="stop-color:rgb(94.099426%,20.799255%,35.931396%);stop-opacity:1;"/>
<stop offset="0.976562" style="stop-color:rgb(94.099426%,20.799255%,35.340881%);stop-opacity:1;"/>
<stop offset="0.980469" style="stop-color:rgb(94.099426%,20.999146%,34.700012%);stop-opacity:1;"/>
<stop offset="0.984375" style="stop-color:rgb(94.099426%,21.199036%,34.060669%);stop-opacity:1;"/>
<stop offset="0.988281" style="stop-color:rgb(94.099426%,21.199036%,33.860779%);stop-opacity:1;"/>
<stop offset="0.992188" style="stop-color:rgb(94.099426%,21.199036%,33.660889%);stop-opacity:1;"/>
<stop offset="0.996094" style="stop-color:rgb(94.099426%,21.199036%,33.079529%);stop-opacity:1;"/>
<stop offset="1" style="stop-color:rgb(94.099426%,21.199036%,32.499695%);stop-opacity:1;"/>
</linearGradient>
</defs>
<g id="surface1">
<g clip-path="url(#clip1)" clip-rule="nonzero">
<g clip-path="url(#clip2)" clip-rule="nonzero">
<g clip-path="url(#clip3)" clip-rule="nonzero">
<path style=" stroke:none;fill-rule:nonzero;fill:url(#linear0);" d="M 41.199219 337.976562 L 342.347656 337.976562 L 342.347656 46.226562 L 41.199219 46.226562 Z M 41.199219 337.976562 "/>
</g>
</g>
</g>
</g>
</svg>
