<?xml version="1.0" encoding="UTF-8"?>
<svg xmlns="http://www.w3.org/2000/svg" xmlns:xlink="http://www.w3.org/1999/xlink" width="384pt" height="383.999986pt" viewBox="0 0 384 383.999986" version="1.2">
<defs>
<clipPath id="clip1">
  <path d="M 226 41.511719 L 232 41.511719 L 232 48 L 226 48 Z M 226 41.511719 "/>
</clipPath>
<clipPath id="clip2">
  <path d="M 35.445312 340 L 347.84375 340 L 347.84375 342 L 35.445312 342 Z M 35.445312 340 "/>
</clipPath>
</defs>
<g id="surface1">
<rect x="0" y="0" width="384" height="383.999986" style="fill:rgb(100%,100%,100%);fill-opacity:1;stroke:none;"/>
<rect x="0" y="0" width="384" height="383.999986" style="fill:rgb(100%,100%,100%);fill-opacity:1;stroke:none;"/>
<rect x="0" y="0" width="384" height="383.999986" style="fill:rgb(100%,100%,100%);fill-opacity:1;stroke:none;"/>
<path style=" stroke:none;fill-rule:nonzero;fill:rgb(97.648621%,67.83905%,62.348938%);fill-opacity:1;" d="M 257.898438 211.171875 C 257.898438 248.867188 227.355469 279.433594 189.683594 279.433594 C 152.011719 279.433594 121.476562 248.867188 121.476562 211.171875 C 121.476562 173.46875 152.011719 142.90625 189.683594 142.90625 C 227.355469 142.90625 257.898438 173.46875 257.898438 211.171875 "/>
<path style=" stroke:none;fill-rule:nonzero;fill:rgb(6.269836%,7.449341%,7.449341%);fill-opacity:1;" d="M 91.546875 204.164062 L 50.382812 204.164062 C 48.246094 204.164062 46.519531 205.894531 46.519531 208.027344 C 46.519531 210.160156 48.246094 211.890625 50.382812 211.890625 L 91.546875 211.890625 C 93.679688 211.890625 95.40625 210.160156 95.40625 208.027344 C 95.40625 205.894531 93.679688 204.164062 91.546875 204.164062 "/>
<path style=" stroke:none;fill-rule:nonzero;fill:rgb(6.269836%,7.449341%,7.449341%);fill-opacity:1;" d="M 332.871094 204.164062 L 291.003906 204.164062 C 288.871094 204.164062 287.144531 205.894531 287.144531 208.027344 C 287.144531 210.160156 288.871094 211.890625 291.003906 211.890625 L 332.871094 211.890625 C 335.003906 211.890625 336.730469 210.160156 336.730469 208.027344 C 336.730469 205.894531 335.003906 204.164062 332.871094 204.164062 "/>
<path style=" stroke:none;fill-rule:nonzero;fill:rgb(93.728638%,21.179199%,23.919678%);fill-opacity:1;" d="M 228.082031 110.820312 C 228.082031 117 223.078125 122.007812 216.90625 122.007812 L 166.347656 122.007812 C 160.171875 122.007812 155.167969 117 155.167969 110.820312 C 155.167969 104.644531 160.171875 99.636719 166.347656 99.636719 L 216.90625 99.636719 C 223.078125 99.636719 228.082031 104.644531 228.082031 110.820312 "/>
<path style=" stroke:none;fill-rule:nonzero;fill:rgb(6.269836%,7.449341%,7.449341%);fill-opacity:1;" d="M 228.082031 110.820312 L 227.226562 110.820312 C 227.226562 113.679688 226.070312 116.253906 224.203125 118.125 C 222.332031 119.996094 219.757812 121.148438 216.90625 121.148438 L 166.347656 121.148438 C 163.492188 121.148438 160.917969 119.996094 159.050781 118.125 C 157.179688 116.253906 156.027344 113.679688 156.027344 110.820312 C 156.027344 107.96875 157.179688 105.394531 159.050781 103.519531 C 160.917969 101.652344 163.492188 100.492188 166.347656 100.492188 L 216.90625 100.492188 C 219.757812 100.492188 222.332031 101.652344 224.203125 103.519531 C 226.070312 105.394531 227.226562 107.96875 227.226562 110.820312 L 228.941406 110.820312 C 228.941406 104.171875 223.554688 98.777344 216.90625 98.777344 L 166.347656 98.777344 C 159.699219 98.777344 154.3125 104.171875 154.3125 110.820312 C 154.3125 117.476562 159.699219 122.867188 166.347656 122.867188 L 216.90625 122.867188 C 223.554688 122.867188 228.941406 117.476562 228.941406 110.820312 L 228.082031 110.820312 "/>
<path style=" stroke:none;fill-rule:nonzero;fill:rgb(69.40918%,15.289307%,16.859436%);fill-opacity:1;" d="M 166.347656 121.148438 C 163.492188 121.148438 160.917969 119.996094 159.050781 118.125 C 157.304688 116.378906 156.183594 114.015625 156.039062 111.386719 L 227.207031 111.386719 C 227.066406 114.015625 225.949219 116.378906 224.203125 118.125 C 222.332031 119.996094 219.757812 121.148438 216.90625 121.148438 L 166.347656 121.148438 "/>
<path style=" stroke:none;fill-rule:nonzero;fill:rgb(5.099487%,5.488586%,5.488586%);fill-opacity:1;" d="M 216.90625 122.007812 L 166.347656 122.007812 C 160.363281 122.007812 155.476562 117.304688 155.183594 111.386719 L 156.039062 111.386719 C 156.183594 114.015625 157.304688 116.378906 159.050781 118.125 C 160.917969 119.996094 163.492188 121.148438 166.347656 121.148438 L 216.90625 121.148438 C 219.757812 121.148438 222.332031 119.996094 224.203125 118.125 C 225.949219 116.378906 227.066406 114.015625 227.207031 111.386719 L 228.070312 111.386719 C 227.773438 117.304688 222.890625 122.007812 216.90625 122.007812 "/>
<path style=" stroke:none;fill-rule:nonzero;fill:rgb(100%,100%,100%);fill-opacity:1;" d="M 168.882812 118.578125 L 168.882812 102.84375 L 175.628906 102.84375 L 175.628906 105.226562 L 171.253906 105.226562 L 171.253906 109.515625 L 174.449219 109.515625 L 174.449219 111.902344 L 171.253906 111.902344 L 171.253906 116.195312 L 175.628906 116.195312 L 175.628906 118.578125 L 168.882812 118.578125 "/>
<path style=" stroke:none;fill-rule:nonzero;fill:rgb(100%,100%,100%);fill-opacity:1;" d="M 182.414062 106.644531 C 182.414062 105.730469 181.960938 105.277344 181.054688 105.277344 L 179.628906 105.277344 L 179.628906 110.308594 L 181.054688 110.308594 C 181.433594 110.308594 181.753906 110.175781 182.019531 109.90625 C 182.28125 109.636719 182.414062 109.316406 182.414062 108.941406 Z M 180.996094 102.855469 C 182.316406 102.855469 183.285156 103.21875 183.90625 103.949219 C 184.449219 104.582031 184.71875 105.46875 184.71875 106.605469 L 184.71875 108.890625 C 184.71875 110.003906 184.296875 110.941406 183.453125 111.714844 L 185.207031 118.578125 L 182.644531 118.578125 L 181.207031 112.65625 L 179.628906 112.65625 L 179.628906 118.578125 L 177.261719 118.578125 L 177.261719 102.855469 L 180.996094 102.855469 "/>
<path style=" stroke:none;fill-rule:nonzero;fill:rgb(100%,100%,100%);fill-opacity:1;" d="M 192.390625 106.644531 C 192.390625 105.730469 191.9375 105.277344 191.039062 105.277344 L 189.605469 105.277344 L 189.605469 110.308594 L 191.039062 110.308594 C 191.414062 110.308594 191.730469 110.175781 191.996094 109.90625 C 192.257812 109.636719 192.390625 109.316406 192.390625 108.941406 Z M 190.972656 102.855469 C 192.292969 102.855469 193.261719 103.21875 193.882812 103.949219 C 194.425781 104.582031 194.695312 105.46875 194.695312 106.605469 L 194.695312 108.890625 C 194.695312 110.003906 194.273438 110.941406 193.429688 111.714844 L 195.1875 118.578125 L 192.621094 118.578125 L 191.183594 112.65625 L 189.605469 112.65625 L 189.605469 118.578125 L 187.238281 118.578125 L 187.238281 102.855469 L 190.972656 102.855469 "/>
<path style=" stroke:none;fill-rule:nonzero;fill:rgb(100%,100%,100%);fill-opacity:1;" d="M 201.855469 106.367188 C 201.855469 105.992188 201.722656 105.671875 201.460938 105.410156 C 201.195312 105.144531 200.878906 105.015625 200.503906 105.015625 C 200.125 105.015625 199.804688 105.144531 199.535156 105.410156 C 199.265625 105.671875 199.136719 105.992188 199.136719 106.367188 L 199.136719 114.976562 C 199.136719 115.351562 199.265625 115.671875 199.535156 115.9375 C 199.804688 116.199219 200.125 116.332031 200.503906 116.332031 C 200.878906 116.332031 201.195312 116.199219 201.460938 115.9375 C 201.722656 115.671875 201.855469 115.351562 201.855469 114.976562 Z M 200.5625 102.652344 C 201.609375 102.652344 202.496094 103.023438 203.226562 103.761719 C 203.960938 104.496094 204.328125 105.382812 204.328125 106.417969 L 204.328125 115 C 204.328125 116.046875 203.957031 116.933594 203.222656 117.664062 C 202.488281 118.398438 201.601562 118.765625 200.5625 118.765625 C 199.519531 118.765625 198.632812 118.398438 197.90625 117.664062 C 197.179688 116.925781 196.816406 116.039062 196.816406 115 L 196.816406 106.417969 C 196.816406 105.371094 197.183594 104.484375 197.921875 103.753906 C 198.652344 103.023438 199.535156 102.652344 200.5625 102.652344 "/>
<path style=" stroke:none;fill-rule:nonzero;fill:rgb(100%,100%,100%);fill-opacity:1;" d="M 211.574219 106.644531 C 211.574219 105.730469 211.121094 105.277344 210.21875 105.277344 L 208.789062 105.277344 L 208.789062 110.308594 L 210.21875 110.308594 C 210.597656 110.308594 210.914062 110.175781 211.179688 109.90625 C 211.441406 109.636719 211.574219 109.316406 211.574219 108.941406 Z M 210.15625 102.855469 C 211.476562 102.855469 212.445312 103.21875 213.066406 103.949219 C 213.609375 104.582031 213.878906 105.46875 213.878906 106.605469 L 213.878906 108.890625 C 213.878906 110.003906 213.457031 110.941406 212.613281 111.714844 L 214.367188 118.578125 L 211.804688 118.578125 L 210.367188 112.65625 L 208.789062 112.65625 L 208.789062 118.578125 L 206.421875 118.578125 L 206.421875 102.855469 L 210.15625 102.855469 "/>
<path style=" stroke:none;fill-rule:nonzero;fill:rgb(6.269836%,7.449341%,7.449341%);fill-opacity:1;" d="M 176.019531 63.679688 L 176.019531 95.777344 L 172.234375 95.777344 L 172.234375 83.984375 L 162.019531 83.984375 C 160.550781 83.984375 159.9375 83.371094 159.9375 81.949219 L 159.9375 63.679688 L 163.71875 63.679688 L 163.71875 80.199219 L 172.234375 80.199219 L 172.234375 63.679688 L 176.019531 63.679688 "/>
<path style=" stroke:none;fill-rule:nonzero;fill:rgb(6.269836%,7.449341%,7.449341%);fill-opacity:1;" d="M 184.4375 88.296875 C 184.4375 90.898438 186.804688 92.226562 189.261719 92.226562 C 191.582031 92.226562 193.992188 90.898438 193.992188 88.296875 L 193.992188 71.394531 C 193.992188 68.933594 191.582031 67.609375 189.261719 67.609375 C 186.804688 67.609375 184.4375 68.933594 184.4375 71.394531 Z M 180.652344 71.394531 C 180.652344 66.28125 184.863281 63.773438 189.261719 63.773438 C 193.46875 63.773438 197.777344 66.28125 197.777344 71.394531 L 197.777344 88.296875 C 197.777344 93.550781 193.46875 96.058594 189.261719 96.058594 C 184.863281 96.058594 180.652344 93.550781 180.652344 88.296875 L 180.652344 71.394531 "/>
<path style=" stroke:none;fill-rule:nonzero;fill:rgb(6.269836%,7.449341%,7.449341%);fill-opacity:1;" d="M 218.726562 63.679688 L 218.726562 95.777344 L 214.945312 95.777344 L 214.945312 83.984375 L 204.730469 83.984375 C 203.261719 83.984375 202.644531 83.371094 202.644531 81.949219 L 202.644531 63.679688 L 206.429688 63.679688 L 206.429688 80.199219 L 214.945312 80.199219 L 214.945312 63.679688 L 218.726562 63.679688 "/>
<path style=" stroke:none;fill-rule:nonzero;fill:rgb(6.269836%,7.449341%,7.449341%);fill-opacity:1;" d="M 136.390625 130.421875 L 245.039062 130.421875 C 245.507812 130.421875 245.894531 130.039062 245.894531 129.5625 C 245.894531 129.089844 245.507812 128.703125 245.039062 128.703125 L 136.390625 128.703125 C 135.917969 128.703125 135.535156 129.089844 135.535156 129.5625 C 135.535156 130.039062 135.917969 130.421875 136.390625 130.421875 "/>
<path style=" stroke:none;fill-rule:nonzero;fill:rgb(6.269836%,7.449341%,7.449341%);fill-opacity:1;" d="M 186.585938 48.238281 L 217.601562 48.238281 C 218.078125 48.238281 218.460938 47.851562 218.460938 47.378906 C 218.460938 46.90625 218.078125 46.519531 217.601562 46.519531 L 186.585938 46.519531 C 186.113281 46.519531 185.726562 46.90625 185.726562 47.378906 C 185.726562 47.851562 186.113281 48.238281 186.585938 48.238281 "/>
<path style=" stroke:none;fill-rule:nonzero;fill:rgb(6.269836%,7.449341%,7.449341%);fill-opacity:1;" d="M 142.472656 55.371094 L 158.582031 55.371094 C 159.054688 55.371094 159.441406 54.992188 159.441406 54.515625 C 159.441406 54.042969 159.054688 53.65625 158.582031 53.65625 L 142.472656 53.65625 C 142 53.65625 141.617188 54.042969 141.617188 54.515625 C 141.617188 54.992188 142 55.371094 142.472656 55.371094 "/>
<path style=" stroke:none;fill-rule:nonzero;fill:rgb(6.269836%,7.449341%,7.449341%);fill-opacity:1;" d="M 126.019531 117.558594 L 142.125 117.558594 C 142.597656 117.558594 142.984375 117.171875 142.984375 116.699219 C 142.984375 116.222656 142.597656 115.839844 142.125 115.839844 L 126.019531 115.839844 C 125.542969 115.839844 125.160156 116.222656 125.160156 116.699219 C 125.160156 117.171875 125.542969 117.558594 126.019531 117.558594 "/>
<path style=" stroke:none;fill-rule:nonzero;fill:rgb(6.269836%,7.449341%,7.449341%);fill-opacity:1;" d="M 175.808594 47.378906 L 174.953125 47.378906 C 174.953125 47.945312 174.496094 48.402344 173.929688 48.402344 C 173.363281 48.402344 172.90625 47.945312 172.90625 47.378906 C 172.90625 46.8125 173.363281 46.355469 173.929688 46.351562 C 174.492188 46.355469 174.953125 46.8125 174.953125 47.378906 L 176.667969 47.378906 C 176.667969 45.867188 175.445312 44.640625 173.929688 44.636719 C 172.414062 44.640625 171.191406 45.867188 171.191406 47.378906 C 171.191406 48.890625 172.414062 50.117188 173.929688 50.117188 C 175.441406 50.117188 176.667969 48.890625 176.667969 47.378906 L 175.808594 47.378906 "/>
<path style=" stroke:none;fill-rule:nonzero;fill:rgb(6.269836%,7.449341%,7.449341%);fill-opacity:1;" d="M 135.953125 100.101562 L 135.09375 100.101562 C 135.09375 100.667969 134.636719 101.125 134.070312 101.125 C 133.503906 101.125 133.046875 100.667969 133.046875 100.101562 C 133.046875 99.535156 133.503906 99.078125 134.070312 99.074219 C 134.636719 99.078125 135.09375 99.535156 135.09375 100.101562 L 136.8125 100.101562 C 136.808594 98.589844 135.585938 97.363281 134.070312 97.359375 C 132.558594 97.363281 131.332031 98.585938 131.332031 100.101562 C 131.332031 101.613281 132.558594 102.839844 134.070312 102.839844 C 135.585938 102.839844 136.808594 101.613281 136.8125 100.101562 L 135.953125 100.101562 "/>
<path style=" stroke:none;fill-rule:nonzero;fill:rgb(6.269836%,7.449341%,7.449341%);fill-opacity:1;" d="M 138.082031 67.105469 L 138.144531 70.507812 C 138.15625 70.980469 138.546875 71.359375 139.019531 71.347656 C 139.496094 71.335938 139.871094 70.949219 139.859375 70.472656 L 139.796875 67.074219 C 139.789062 66.597656 139.398438 66.21875 138.921875 66.230469 C 138.449219 66.242188 138.074219 66.628906 138.082031 67.105469 "/>
<path style=" stroke:none;fill-rule:nonzero;fill:rgb(6.269836%,7.449341%,7.449341%);fill-opacity:1;" d="M 138.203125 73.632812 L 138.265625 77.035156 C 138.273438 77.507812 138.667969 77.886719 139.140625 77.875 C 139.613281 77.867188 139.992188 77.476562 139.980469 77 L 139.921875 73.601562 C 139.910156 73.128906 139.519531 72.753906 139.046875 72.757812 C 138.570312 72.769531 138.195312 73.160156 138.203125 73.632812 "/>
<path style=" stroke:none;fill-rule:nonzero;fill:rgb(6.269836%,7.449341%,7.449341%);fill-opacity:1;" d="M 143.976562 71.101562 L 140.582031 71.167969 C 140.109375 71.175781 139.730469 71.566406 139.738281 72.042969 C 139.746094 72.515625 140.136719 72.894531 140.613281 72.882812 L 144.007812 72.820312 C 144.484375 72.808594 144.859375 72.421875 144.851562 71.945312 C 144.84375 71.472656 144.449219 71.09375 143.976562 71.101562 "/>
<path style=" stroke:none;fill-rule:nonzero;fill:rgb(6.269836%,7.449341%,7.449341%);fill-opacity:1;" d="M 137.449219 71.222656 L 134.058594 71.289062 C 133.582031 71.296875 133.207031 71.691406 133.210938 72.164062 C 133.222656 72.636719 133.613281 73.015625 134.085938 73.003906 L 137.484375 72.941406 C 137.957031 72.929688 138.335938 72.542969 138.324219 72.066406 C 138.316406 71.59375 137.925781 71.21875 137.449219 71.222656 "/>
<path style=" stroke:none;fill-rule:nonzero;fill:rgb(6.269836%,7.449341%,7.449341%);fill-opacity:1;" d="M 141.855469 67.882812 L 139.5 70.332031 C 139.171875 70.671875 139.179688 71.21875 139.523438 71.546875 C 139.863281 71.875 140.40625 71.863281 140.734375 71.523438 L 143.09375 69.074219 C 143.421875 68.730469 143.410156 68.1875 143.070312 67.859375 C 142.726562 67.53125 142.183594 67.542969 141.855469 67.882812 "/>
<path style=" stroke:none;fill-rule:nonzero;fill:rgb(6.269836%,7.449341%,7.449341%);fill-opacity:1;" d="M 137.332031 72.585938 L 134.972656 75.03125 C 134.644531 75.375 134.652344 75.917969 134.996094 76.246094 C 135.335938 76.574219 135.878906 76.570312 136.207031 76.226562 L 138.566406 73.777344 C 138.894531 73.4375 138.886719 72.890625 138.542969 72.5625 C 138.203125 72.234375 137.660156 72.242188 137.332031 72.585938 "/>
<path style=" stroke:none;fill-rule:nonzero;fill:rgb(6.269836%,7.449341%,7.449341%);fill-opacity:1;" d="M 143.199219 74.882812 L 140.753906 72.519531 C 140.414062 72.191406 139.871094 72.203125 139.542969 72.542969 C 139.214844 72.886719 139.222656 73.429688 139.566406 73.757812 L 142.007812 76.121094 C 142.351562 76.449219 142.890625 76.4375 143.222656 76.097656 C 143.550781 75.753906 143.542969 75.210938 143.199219 74.882812 "/>
<path style=" stroke:none;fill-rule:nonzero;fill:rgb(6.269836%,7.449341%,7.449341%);fill-opacity:1;" d="M 138.5 70.347656 L 136.054688 67.992188 C 135.710938 67.664062 135.167969 67.667969 134.839844 68.011719 C 134.511719 68.351562 134.523438 68.898438 134.863281 69.226562 L 137.308594 71.585938 C 137.652344 71.914062 138.195312 71.90625 138.523438 71.5625 C 138.851562 71.21875 138.839844 70.675781 138.5 70.347656 "/>
<path style=" stroke:none;fill-rule:nonzero;fill:rgb(6.269836%,7.449341%,7.449341%);fill-opacity:1;" d="M 240.773438 53.65625 L 224.667969 53.65625 C 224.195312 53.65625 223.8125 54.042969 223.8125 54.515625 C 223.8125 54.992188 224.195312 55.371094 224.667969 55.371094 L 240.773438 55.371094 C 241.25 55.371094 241.632812 54.992188 241.632812 54.515625 C 241.632812 54.042969 241.25 53.65625 240.773438 53.65625 "/>
<path style=" stroke:none;fill-rule:nonzero;fill:rgb(6.269836%,7.449341%,7.449341%);fill-opacity:1;" d="M 257.234375 115.839844 L 241.128906 115.839844 C 240.652344 115.839844 240.269531 116.222656 240.269531 116.699219 C 240.269531 117.171875 240.652344 117.558594 241.128906 117.558594 L 257.234375 117.558594 C 257.710938 117.558594 258.089844 117.171875 258.089844 116.699219 C 258.089844 116.222656 257.710938 115.839844 257.234375 115.839844 "/>
<g clip-path="url(#clip1)" clip-rule="nonzero">
<path style=" stroke:none;fill-rule:nonzero;fill:rgb(6.269836%,7.449341%,7.449341%);fill-opacity:1;" d="M 227.171875 44.402344 L 226.3125 44.402344 C 226.3125 45.914062 227.539062 47.140625 229.050781 47.140625 C 230.566406 47.140625 231.789062 45.914062 231.792969 44.402344 C 231.789062 42.886719 230.566406 41.660156 229.050781 41.660156 C 227.539062 41.660156 226.3125 42.886719 226.3125 44.402344 L 228.027344 44.402344 C 228.027344 43.835938 228.488281 43.375 229.050781 43.375 C 229.617188 43.375 230.074219 43.835938 230.078125 44.402344 C 230.074219 44.964844 229.617188 45.421875 229.050781 45.425781 C 228.488281 45.421875 228.027344 44.964844 228.027344 44.402344 L 227.171875 44.402344 "/>
</g>
<path style=" stroke:none;fill-rule:nonzero;fill:rgb(6.269836%,7.449341%,7.449341%);fill-opacity:1;" d="M 247.300781 100.101562 L 246.441406 100.101562 C 246.441406 101.613281 247.667969 102.839844 249.183594 102.839844 C 250.691406 102.839844 251.917969 101.613281 251.917969 100.101562 C 251.917969 98.585938 250.691406 97.363281 249.183594 97.359375 C 247.667969 97.363281 246.441406 98.589844 246.441406 100.101562 L 248.15625 100.101562 C 248.15625 99.535156 248.617188 99.078125 249.183594 99.074219 C 249.746094 99.078125 250.203125 99.535156 250.203125 100.101562 C 250.203125 100.667969 249.746094 101.125 249.183594 101.125 C 248.617188 101.125 248.15625 100.667969 248.15625 100.101562 L 247.300781 100.101562 "/>
<path style=" stroke:none;fill-rule:nonzero;fill:rgb(6.269836%,7.449341%,7.449341%);fill-opacity:1;" d="M 243.457031 67.074219 L 243.386719 70.472656 C 243.382812 70.949219 243.757812 71.335938 244.230469 71.347656 C 244.707031 71.359375 245.097656 70.980469 245.105469 70.507812 L 245.171875 67.105469 C 245.179688 66.628906 244.800781 66.242188 244.328125 66.230469 C 243.855469 66.21875 243.460938 66.597656 243.457031 67.074219 "/>
<path style=" stroke:none;fill-rule:nonzero;fill:rgb(6.269836%,7.449341%,7.449341%);fill-opacity:1;" d="M 243.332031 73.601562 L 243.269531 77 C 243.261719 77.476562 243.636719 77.867188 244.113281 77.875 C 244.585938 77.886719 244.976562 77.507812 244.984375 77.035156 L 245.046875 73.632812 C 245.058594 73.160156 244.679688 72.769531 244.207031 72.757812 C 243.734375 72.753906 243.339844 73.128906 243.332031 73.601562 "/>
<path style=" stroke:none;fill-rule:nonzero;fill:rgb(6.269836%,7.449341%,7.449341%);fill-opacity:1;" d="M 239.242188 72.820312 L 242.636719 72.882812 C 243.113281 72.894531 243.503906 72.515625 243.511719 72.042969 C 243.523438 71.566406 243.144531 71.175781 242.671875 71.167969 L 239.273438 71.101562 C 238.800781 71.09375 238.410156 71.472656 238.398438 71.945312 C 238.394531 72.421875 238.769531 72.808594 239.242188 72.820312 "/>
<path style=" stroke:none;fill-rule:nonzero;fill:rgb(6.269836%,7.449341%,7.449341%);fill-opacity:1;" d="M 245.769531 72.941406 L 249.164062 73.003906 C 249.636719 73.015625 250.03125 72.636719 250.035156 72.164062 C 250.046875 71.691406 249.671875 71.296875 249.195312 71.289062 L 245.796875 71.222656 C 245.324219 71.21875 244.933594 71.59375 244.925781 72.066406 C 244.917969 72.542969 245.296875 72.929688 245.769531 72.941406 "/>
<path style=" stroke:none;fill-rule:nonzero;fill:rgb(6.269836%,7.449341%,7.449341%);fill-opacity:1;" d="M 240.160156 69.074219 L 242.515625 71.523438 C 242.847656 71.863281 243.386719 71.875 243.730469 71.546875 C 244.070312 71.21875 244.078125 70.671875 243.75 70.332031 L 241.394531 67.882812 C 241.066406 67.542969 240.523438 67.53125 240.183594 67.859375 C 239.839844 68.1875 239.832031 68.730469 240.160156 69.074219 "/>
<path style=" stroke:none;fill-rule:nonzero;fill:rgb(6.269836%,7.449341%,7.449341%);fill-opacity:1;" d="M 244.683594 73.777344 L 247.042969 76.226562 C 247.371094 76.570312 247.914062 76.574219 248.257812 76.246094 C 248.597656 75.917969 248.609375 75.375 248.28125 75.03125 L 245.921875 72.585938 C 245.59375 72.242188 245.050781 72.234375 244.707031 72.5625 C 244.367188 72.890625 244.355469 73.4375 244.683594 73.777344 "/>
<path style=" stroke:none;fill-rule:nonzero;fill:rgb(6.269836%,7.449341%,7.449341%);fill-opacity:1;" d="M 241.242188 76.121094 L 243.6875 73.757812 C 244.027344 73.429688 244.039062 72.886719 243.710938 72.542969 C 243.382812 72.203125 242.839844 72.191406 242.496094 72.519531 L 240.050781 74.882812 C 239.710938 75.210938 239.699219 75.753906 240.027344 76.097656 C 240.355469 76.4375 240.898438 76.449219 241.242188 76.121094 "/>
<path style=" stroke:none;fill-rule:nonzero;fill:rgb(6.269836%,7.449341%,7.449341%);fill-opacity:1;" d="M 245.941406 71.585938 L 248.386719 69.226562 C 248.730469 68.898438 248.738281 68.351562 248.410156 68.011719 C 248.082031 67.667969 247.539062 67.664062 247.199219 67.992188 L 244.753906 70.347656 C 244.410156 70.675781 244.402344 71.21875 244.730469 71.5625 C 245.058594 71.90625 245.601562 71.914062 245.941406 71.585938 "/>
<g clip-path="url(#clip2)" clip-rule="nonzero">
<path style=" stroke:none;fill-rule:nonzero;fill:rgb(6.269836%,7.449341%,7.449341%);fill-opacity:1;" d="M 36.300781 341.890625 L 346.949219 341.890625 C 347.421875 341.890625 347.808594 341.511719 347.808594 341.035156 C 347.808594 340.5625 347.421875 340.175781 346.949219 340.175781 L 36.300781 340.175781 C 35.828125 340.175781 35.445312 340.5625 35.445312 341.035156 C 35.445312 341.511719 35.828125 341.890625 36.300781 341.890625 "/>
</g>
<path style=" stroke:none;fill-rule:nonzero;fill:rgb(100%,100%,100%);fill-opacity:1;" d="M 208.640625 194.527344 C 208.640625 196.984375 206.652344 198.976562 204.191406 198.976562 L 131.890625 198.976562 C 129.429688 198.976562 127.4375 196.984375 127.4375 194.527344 C 127.4375 192.066406 129.429688 190.074219 131.890625 190.074219 L 204.191406 190.074219 C 206.652344 190.074219 208.640625 192.066406 208.640625 194.527344 "/>
<path style=" stroke:none;fill-rule:nonzero;fill:rgb(6.269836%,7.449341%,7.449341%);fill-opacity:1;" d="M 208.640625 194.527344 L 207.355469 194.527344 C 207.351562 195.402344 207.003906 196.1875 206.429688 196.765625 C 205.851562 197.339844 205.070312 197.691406 204.191406 197.691406 L 131.890625 197.691406 C 131.011719 197.691406 130.230469 197.339844 129.652344 196.765625 C 129.078125 196.1875 128.730469 195.402344 128.726562 194.527344 C 128.730469 193.648438 129.078125 192.863281 129.652344 192.289062 C 130.230469 191.714844 131.011719 191.363281 131.890625 191.363281 L 204.191406 191.363281 C 205.070312 191.363281 205.851562 191.714844 206.429688 192.289062 C 207.003906 192.863281 207.351562 193.648438 207.355469 194.527344 L 209.929688 194.527344 C 209.925781 191.355469 207.363281 188.789062 204.191406 188.789062 L 131.890625 188.789062 C 128.71875 188.789062 126.15625 191.355469 126.152344 194.527344 C 126.15625 197.695312 128.71875 200.265625 131.890625 200.265625 L 204.191406 200.265625 C 207.363281 200.265625 209.925781 197.695312 209.929688 194.527344 L 208.640625 194.527344 "/>
<path style=" stroke:none;fill-rule:nonzero;fill:rgb(100%,100%,100%);fill-opacity:1;" d="M 208.640625 222.058594 C 208.640625 224.515625 206.652344 226.507812 204.191406 226.507812 L 131.890625 226.507812 C 129.429688 226.507812 127.4375 224.515625 127.4375 222.058594 C 127.4375 219.601562 129.429688 217.605469 131.890625 217.605469 L 204.191406 217.605469 C 206.652344 217.605469 208.640625 219.601562 208.640625 222.058594 "/>
<path style=" stroke:none;fill-rule:nonzero;fill:rgb(6.269836%,7.449341%,7.449341%);fill-opacity:1;" d="M 208.640625 222.058594 L 207.355469 222.058594 C 207.351562 222.9375 207.003906 223.71875 206.429688 224.296875 C 205.851562 224.867188 205.070312 225.21875 204.191406 225.21875 L 131.890625 225.21875 C 131.011719 225.21875 130.230469 224.867188 129.652344 224.296875 C 129.078125 223.71875 128.730469 222.9375 128.726562 222.058594 C 128.730469 221.179688 129.078125 220.398438 129.652344 219.820312 C 130.230469 219.246094 131.011719 218.894531 131.890625 218.894531 L 204.191406 218.894531 C 205.070312 218.894531 205.851562 219.246094 206.429688 219.820312 C 207.003906 220.398438 207.351562 221.179688 207.355469 222.058594 L 209.929688 222.058594 C 209.925781 218.886719 207.363281 216.320312 204.191406 216.316406 L 131.890625 216.316406 C 128.71875 216.320312 126.15625 218.886719 126.152344 222.058594 C 126.15625 225.226562 128.71875 227.796875 131.890625 227.796875 L 204.191406 227.796875 C 207.363281 227.796875 209.925781 225.226562 209.929688 222.058594 L 208.640625 222.058594 "/>
<path style=" stroke:none;fill-rule:nonzero;fill:rgb(48.239136%,47.44873%,47.44873%);fill-opacity:1;" d="M 124.714844 242.058594 L 90.183594 225.042969 L 90.183594 190.453125 L 124.714844 174.53125 L 124.714844 242.058594 "/>
<path style=" stroke:none;fill-rule:nonzero;fill:rgb(6.269836%,7.449341%,7.449341%);fill-opacity:1;" d="M 124.714844 242.058594 L 125.285156 240.898438 L 91.46875 224.242188 L 91.46875 191.277344 L 123.429688 176.539062 L 123.429688 242.058594 L 124.714844 242.058594 L 125.285156 240.898438 L 124.714844 242.058594 L 126 242.058594 L 126 174.53125 C 126 174.085938 125.78125 173.679688 125.410156 173.441406 C 125.039062 173.207031 124.574219 173.175781 124.175781 173.359375 L 89.644531 189.285156 C 89.1875 189.492188 88.898438 189.953125 88.898438 190.453125 L 88.898438 225.042969 C 88.898438 225.53125 89.175781 225.980469 89.613281 226.195312 L 124.148438 243.214844 C 124.542969 243.410156 125.019531 243.386719 125.394531 243.148438 C 125.769531 242.914062 126 242.5 126 242.058594 L 124.714844 242.058594 "/>
<path style=" stroke:none;fill-rule:nonzero;fill:rgb(48.239136%,47.44873%,47.44873%);fill-opacity:1;" d="M 124.714844 242.058594 L 159.25 242.058594 L 159.25 174.53125 L 124.714844 174.53125 Z M 124.714844 242.058594 "/>
<path style=" stroke:none;fill-rule:nonzero;fill:rgb(6.269836%,7.449341%,7.449341%);fill-opacity:1;" d="M 159.25 242.058594 L 159.25 240.769531 L 126 240.769531 L 126 175.816406 L 157.964844 175.816406 L 157.964844 242.058594 L 159.25 242.058594 L 159.25 240.769531 L 159.25 242.058594 L 160.535156 242.058594 L 160.535156 174.53125 C 160.535156 174.1875 160.398438 173.855469 160.160156 173.617188 C 159.921875 173.378906 159.589844 173.242188 159.25 173.242188 L 124.714844 173.242188 C 124.375 173.242188 124.046875 173.378906 123.808594 173.617188 C 123.566406 173.855469 123.429688 174.1875 123.429688 174.53125 L 123.429688 242.058594 C 123.429688 242.394531 123.566406 242.726562 123.808594 242.96875 C 124.046875 243.207031 124.375 243.34375 124.714844 243.34375 L 159.25 243.34375 C 159.589844 243.34375 159.921875 243.207031 160.160156 242.964844 C 160.398438 242.726562 160.535156 242.394531 160.535156 242.058594 L 159.25 242.058594 "/>
<path style=" stroke:none;fill-rule:nonzero;fill:rgb(37.649536%,36.859131%,36.859131%);fill-opacity:1;" d="M 123.429688 239.988281 L 91.46875 224.242188 L 91.46875 208.664062 L 123.429688 224.410156 L 123.429688 239.988281 "/>
<path style=" stroke:none;fill-rule:nonzero;fill:rgb(5.099487%,5.488586%,5.488586%);fill-opacity:1;" d="M 123.429688 241.421875 L 90.183594 225.042969 L 90.183594 208.027344 L 91.46875 208.664062 L 91.46875 224.242188 L 123.429688 239.988281 L 123.429688 224.410156 L 123.429688 241.421875 "/>
<path style=" stroke:none;fill-rule:nonzero;fill:rgb(37.649536%,36.859131%,36.859131%);fill-opacity:1;" d="M 126 240.769531 L 157.964844 240.769531 L 157.964844 225.042969 L 126 225.042969 Z M 126 240.769531 "/>
<path style=" stroke:none;fill-rule:nonzero;fill:rgb(5.099487%,5.488586%,5.488586%);fill-opacity:1;" d="M 159.25 242.058594 L 124.714844 242.058594 L 123.429688 241.421875 L 123.429688 224.410156 L 124.714844 225.042969 L 126 225.042969 L 126 240.769531 L 157.964844 240.769531 L 157.964844 225.042969 L 159.25 225.042969 L 159.25 242.058594 M 159.25 242.058594 L 159.25 240.769531 L 159.25 242.058594 "/>
<path style=" stroke:none;fill-rule:nonzero;fill:rgb(6.269836%,7.449341%,7.449341%);fill-opacity:1;" d="M 133.160156 185.449219 L 152.601562 185.449219 C 153.308594 185.449219 153.890625 184.871094 153.890625 184.160156 C 153.890625 183.445312 153.308594 182.871094 152.601562 182.871094 L 133.160156 182.871094 C 132.449219 182.871094 131.871094 183.445312 131.871094 184.160156 C 131.871094 184.871094 132.449219 185.449219 133.160156 185.449219 "/>
<path style=" stroke:none;fill-rule:nonzero;fill:rgb(48.239136%,47.44873%,47.44873%);fill-opacity:1;" d="M 258.535156 244.933594 L 293.070312 227.917969 L 293.070312 193.328125 L 258.535156 177.402344 L 258.535156 244.933594 "/>
<path style=" stroke:none;fill-rule:nonzero;fill:rgb(6.269836%,7.449341%,7.449341%);fill-opacity:1;" d="M 258.535156 244.933594 L 259.101562 246.085938 L 293.636719 229.074219 C 294.078125 228.859375 294.355469 228.40625 294.355469 227.917969 L 294.355469 193.328125 C 294.355469 192.828125 294.0625 192.367188 293.609375 192.160156 L 259.074219 176.234375 C 258.675781 176.050781 258.210938 176.082031 257.839844 176.320312 C 257.472656 176.554688 257.25 176.964844 257.25 177.402344 L 257.25 244.933594 C 257.25 245.375 257.476562 245.792969 257.851562 246.027344 C 258.230469 246.261719 258.703125 246.285156 259.101562 246.085938 L 258.535156 244.933594 L 259.824219 244.933594 L 259.824219 179.414062 L 291.78125 194.152344 L 291.78125 227.117188 L 257.96875 243.78125 L 258.535156 244.933594 L 259.824219 244.933594 L 258.535156 244.933594 "/>
<path style=" stroke:none;fill-rule:nonzero;fill:rgb(48.239136%,47.44873%,47.44873%);fill-opacity:1;" d="M 224 244.933594 L 258.535156 244.933594 L 258.535156 177.402344 L 224 177.402344 Z M 224 244.933594 "/>
<path style=" stroke:none;fill-rule:nonzero;fill:rgb(6.269836%,7.449341%,7.449341%);fill-opacity:1;" d="M 224 244.933594 L 224 246.222656 L 258.535156 246.222656 C 258.875 246.222656 259.203125 246.085938 259.445312 245.847656 C 259.6875 245.605469 259.824219 245.273438 259.824219 244.933594 L 259.824219 177.402344 C 259.824219 177.066406 259.6875 176.734375 259.445312 176.496094 C 259.203125 176.253906 258.875 176.117188 258.535156 176.117188 L 224 176.117188 C 223.660156 176.117188 223.328125 176.253906 223.089844 176.496094 C 222.847656 176.734375 222.710938 177.066406 222.710938 177.402344 L 222.710938 244.933594 C 222.710938 245.273438 222.847656 245.605469 223.089844 245.847656 C 223.328125 246.085938 223.660156 246.222656 224 246.222656 L 224 244.933594 L 225.285156 244.933594 L 225.285156 178.691406 L 257.25 178.691406 L 257.25 243.644531 L 224 243.644531 L 224 244.933594 L 225.285156 244.933594 L 224 244.933594 "/>
<path style=" stroke:none;fill-rule:nonzero;fill:rgb(37.649536%,36.859131%,36.859131%);fill-opacity:1;" d="M 259.824219 242.863281 L 259.824219 227.285156 L 291.78125 211.535156 L 291.78125 227.117188 L 259.824219 242.863281 "/>
<path style=" stroke:none;fill-rule:nonzero;fill:rgb(5.099487%,5.488586%,5.488586%);fill-opacity:1;" d="M 259.824219 244.300781 L 259.824219 242.863281 L 291.78125 227.117188 L 291.78125 211.535156 L 293.070312 210.90625 L 293.070312 227.917969 L 259.824219 244.300781 "/>
<path style=" stroke:none;fill-rule:nonzero;fill:rgb(37.649536%,36.859131%,36.859131%);fill-opacity:1;" d="M 225.285156 243.644531 L 257.25 243.644531 L 257.25 227.917969 L 225.285156 227.917969 Z M 225.285156 243.644531 "/>
<path style=" stroke:none;fill-rule:nonzero;fill:rgb(5.099487%,5.488586%,5.488586%);fill-opacity:1;" d="M 258.535156 244.933594 L 224 244.933594 L 224 227.917969 L 225.285156 227.917969 L 225.285156 243.644531 L 257.25 243.644531 L 257.25 227.917969 L 258.535156 227.917969 L 259.824219 227.285156 L 259.824219 244.300781 L 258.535156 244.933594 "/>
<path style=" stroke:none;fill-rule:nonzero;fill:rgb(6.269836%,7.449341%,7.449341%);fill-opacity:1;" d="M 250.09375 185.746094 L 230.648438 185.746094 C 229.9375 185.746094 229.363281 186.324219 229.363281 187.035156 C 229.363281 187.746094 229.9375 188.320312 230.648438 188.320312 L 250.09375 188.320312 C 250.804688 188.320312 251.378906 187.746094 251.378906 187.035156 C 251.378906 186.324219 250.804688 185.746094 250.09375 185.746094 "/>
<path style=" stroke:none;fill-rule:nonzero;fill:rgb(6.269836%,7.449341%,7.449341%);fill-opacity:1;" d="M 174.105469 290.425781 C 174.105469 290.082031 173.984375 289.785156 173.742188 289.542969 C 173.496094 289.300781 173.203125 289.175781 172.855469 289.175781 C 172.507812 289.175781 172.210938 289.300781 171.964844 289.542969 C 171.71875 289.785156 171.59375 290.082031 171.59375 290.425781 L 171.59375 298.367188 C 171.59375 298.714844 171.71875 299.011719 171.964844 299.253906 C 172.210938 299.496094 172.507812 299.617188 172.855469 299.617188 C 173.203125 299.617188 173.496094 299.496094 173.742188 299.253906 C 173.984375 299.011719 174.105469 298.714844 174.105469 298.367188 Z M 172.914062 287 C 173.878906 287 174.695312 287.34375 175.371094 288.023438 C 176.046875 288.699219 176.382812 289.519531 176.382812 290.472656 L 176.382812 298.390625 C 176.382812 299.355469 176.042969 300.175781 175.367188 300.847656 C 174.6875 301.527344 173.871094 301.863281 172.914062 301.863281 C 171.949219 301.863281 171.132812 301.523438 170.460938 300.84375 C 169.792969 300.164062 169.457031 299.347656 169.457031 298.390625 L 169.457031 290.472656 C 169.457031 289.511719 169.792969 288.691406 170.476562 288.015625 C 171.152344 287.34375 171.964844 287 172.914062 287 "/>
<path style=" stroke:none;fill-rule:nonzero;fill:rgb(6.269836%,7.449341%,7.449341%);fill-opacity:1;" d="M 182.917969 290.425781 C 182.917969 290.082031 182.796875 289.785156 182.554688 289.542969 C 182.308594 289.300781 182.015625 289.175781 181.667969 289.175781 C 181.320312 289.175781 181.027344 289.300781 180.777344 289.542969 C 180.53125 289.785156 180.410156 290.082031 180.410156 290.425781 L 180.410156 298.367188 C 180.410156 298.714844 180.53125 299.011719 180.777344 299.253906 C 181.027344 299.496094 181.320312 299.617188 181.667969 299.617188 C 182.015625 299.617188 182.308594 299.496094 182.554688 299.253906 C 182.796875 299.011719 182.917969 298.714844 182.917969 298.367188 Z M 181.726562 287 C 182.691406 287 183.507812 287.34375 184.183594 288.023438 C 184.859375 288.699219 185.199219 289.519531 185.199219 290.472656 L 185.199219 298.390625 C 185.199219 299.355469 184.855469 300.175781 184.179688 300.847656 C 183.5 301.527344 182.679688 301.863281 181.726562 301.863281 C 180.761719 301.863281 179.949219 301.523438 179.273438 300.84375 C 178.605469 300.164062 178.269531 299.347656 178.269531 298.390625 L 178.269531 290.472656 C 178.269531 289.511719 178.605469 288.691406 179.289062 288.015625 C 179.964844 287.34375 180.777344 287 181.726562 287 "/>
<path style=" stroke:none;fill-rule:nonzero;fill:rgb(6.269836%,7.449341%,7.449341%);fill-opacity:1;" d="M 191.878906 290.683594 C 191.878906 290.304688 191.765625 289.996094 191.539062 289.769531 C 191.3125 289.535156 191.007812 289.421875 190.632812 289.421875 L 189.3125 289.421875 L 189.3125 294.0625 L 190.632812 294.0625 C 190.976562 294.0625 191.273438 293.9375 191.515625 293.691406 C 191.757812 293.445312 191.878906 293.148438 191.878906 292.800781 Z M 190.574219 287.1875 C 191.636719 287.1875 192.484375 287.523438 193.117188 288.195312 C 193.707031 288.835938 193.996094 289.652344 193.996094 290.648438 L 193.996094 292.753906 C 193.996094 293.714844 193.660156 294.53125 192.996094 295.207031 C 192.328125 295.890625 191.519531 296.226562 190.574219 296.226562 L 189.3125 296.226562 L 189.3125 301.691406 L 187.128906 301.691406 L 187.128906 287.1875 L 190.574219 287.1875 "/>
<path style=" stroke:none;fill-rule:nonzero;fill:rgb(6.269836%,7.449341%,7.449341%);fill-opacity:1;" d="M 202.726562 298.078125 C 202.746094 299.089844 202.480469 299.953125 201.941406 300.671875 C 201.585938 301.15625 201.085938 301.5 200.441406 301.699219 C 200.089844 301.808594 199.6875 301.863281 199.222656 301.863281 C 198.371094 301.863281 197.660156 301.652344 197.097656 301.226562 C 196.625 300.878906 196.253906 300.40625 195.980469 299.808594 C 195.707031 299.210938 195.542969 298.527344 195.5 297.753906 L 197.582031 297.605469 C 197.675781 298.449219 197.898438 299.0625 198.253906 299.441406 C 198.511719 299.730469 198.816406 299.867188 199.152344 299.851562 C 199.632812 299.835938 200.015625 299.597656 200.300781 299.140625 C 200.445312 298.917969 200.519531 298.597656 200.519531 298.183594 C 200.519531 297.578125 200.246094 296.980469 199.699219 296.386719 C 199.265625 295.976562 198.617188 295.363281 197.757812 294.546875 C 197.03125 293.839844 196.515625 293.214844 196.21875 292.652344 C 195.894531 292.03125 195.730469 291.351562 195.730469 290.613281 C 195.730469 289.296875 196.175781 288.292969 197.0625 287.617188 C 197.609375 287.207031 198.289062 287 199.097656 287 C 199.878906 287 200.542969 287.175781 201.097656 287.523438 C 201.527344 287.792969 201.878906 288.171875 202.144531 288.65625 C 202.410156 289.144531 202.570312 289.703125 202.625 290.335938 L 200.53125 290.714844 C 200.46875 290.121094 200.300781 289.664062 200.019531 289.328125 C 199.824219 289.089844 199.53125 288.972656 199.152344 288.972656 C 198.753906 288.972656 198.449219 289.144531 198.242188 289.5 C 198.070312 289.785156 197.988281 290.140625 197.988281 290.566406 C 197.988281 291.230469 198.273438 291.90625 198.839844 292.59375 C 199.058594 292.855469 199.382812 293.164062 199.8125 293.519531 C 200.324219 293.941406 200.65625 294.238281 200.820312 294.410156 C 201.363281 294.949219 201.777344 295.480469 202.070312 296.007812 C 202.210938 296.253906 202.320312 296.484375 202.402344 296.6875 C 202.613281 297.207031 202.722656 297.671875 202.726562 298.078125 "/>
<path style=" stroke:none;fill-rule:nonzero;fill:rgb(6.269836%,7.449341%,7.449341%);fill-opacity:1;" d="M 204.234375 299.515625 L 206.417969 299.515625 L 206.417969 301.699219 L 204.234375 301.699219 L 204.234375 299.515625 "/>
<path style=" stroke:none;fill-rule:nonzero;fill:rgb(6.269836%,7.449341%,7.449341%);fill-opacity:1;" d="M 207.921875 299.515625 L 210.105469 299.515625 L 210.105469 301.699219 L 207.921875 301.699219 L 207.921875 299.515625 "/>
<path style=" stroke:none;fill-rule:nonzero;fill:rgb(6.269836%,7.449341%,7.449341%);fill-opacity:1;" d="M 211.609375 299.515625 L 213.796875 299.515625 L 213.796875 301.699219 L 211.609375 301.699219 L 211.609375 299.515625 "/>
<path style=" stroke:none;fill-rule:nonzero;fill:rgb(6.269836%,7.449341%,7.449341%);fill-opacity:1;" d="M 142.054688 315.289062 L 144.101562 315.289062 L 144.101562 316.085938 L 141.179688 316.085938 L 141.179688 306.675781 L 142.054688 306.675781 L 142.054688 315.289062 "/>
<path style=" stroke:none;fill-rule:nonzero;fill:rgb(6.269836%,7.449341%,7.449341%);fill-opacity:1;" d="M 145.3125 312.878906 C 145.3125 313.503906 145.335938 315.425781 146.308594 315.425781 C 147.28125 315.425781 147.304688 313.503906 147.304688 312.878906 C 147.304688 312.265625 147.28125 310.34375 146.308594 310.34375 C 145.335938 310.34375 145.3125 312.265625 145.3125 312.878906 Z M 148.144531 312.878906 C 148.144531 314.089844 147.992188 316.1875 146.308594 316.1875 C 144.625 316.1875 144.472656 314.089844 144.472656 312.878906 C 144.472656 311.679688 144.625 309.585938 146.308594 309.585938 C 147.992188 309.585938 148.144531 311.679688 148.144531 312.878906 "/>
<path style=" stroke:none;fill-rule:nonzero;fill:rgb(6.269836%,7.449341%,7.449341%);fill-opacity:1;" d="M 149.742188 312.878906 C 149.742188 313.503906 149.765625 315.425781 150.738281 315.425781 C 151.710938 315.425781 151.734375 313.503906 151.734375 312.878906 C 151.734375 312.265625 151.710938 310.34375 150.738281 310.34375 C 149.765625 310.34375 149.742188 312.265625 149.742188 312.878906 Z M 152.574219 312.878906 C 152.574219 314.089844 152.421875 316.1875 150.738281 316.1875 C 149.054688 316.1875 148.902344 314.089844 148.902344 312.878906 C 148.902344 311.679688 149.054688 309.585938 150.738281 309.585938 C 152.421875 309.585938 152.574219 311.679688 152.574219 312.878906 "/>
<path style=" stroke:none;fill-rule:nonzero;fill:rgb(6.269836%,7.449341%,7.449341%);fill-opacity:1;" d="M 154.332031 312.28125 L 154.359375 312.28125 L 155.917969 309.683594 L 156.839844 309.683594 L 154.929688 312.554688 L 157.335938 316.085938 L 156.328125 316.085938 L 154.359375 313.019531 L 154.332031 313.019531 L 154.332031 316.085938 L 153.519531 316.085938 L 153.519531 306.101562 L 154.332031 306.101562 L 154.332031 312.28125 "/>
<path style=" stroke:none;fill-rule:nonzero;fill:rgb(6.269836%,7.449341%,7.449341%);fill-opacity:1;" d="M 160.347656 310.996094 L 160.320312 310.996094 C 160.085938 310.65625 159.710938 310.34375 159.261719 310.34375 C 158.773438 310.34375 158.464844 310.71875 158.464844 311.195312 C 158.464844 311.808594 158.984375 312.179688 159.5 312.605469 C 160.019531 313.042969 160.535156 313.515625 160.535156 314.351562 C 160.535156 315.375 159.847656 316.1875 158.789062 316.1875 C 158.386719 316.1875 157.9375 316.003906 157.625 315.75 L 157.625 314.800781 C 157.9375 315.128906 158.273438 315.425781 158.761719 315.425781 C 159.324219 315.425781 159.695312 314.988281 159.695312 314.453125 C 159.695312 313.816406 159.1875 313.390625 158.660156 312.925781 C 158.152344 312.480469 157.625 311.980469 157.625 311.21875 C 157.625 310.257812 158.261719 309.585938 159.222656 309.585938 C 159.636719 309.585938 160.019531 309.746094 160.347656 309.996094 L 160.347656 310.996094 "/>
<path style=" stroke:none;fill-rule:nonzero;fill:rgb(6.269836%,7.449341%,7.449341%);fill-opacity:1;" d="M 164.777344 316.085938 L 163.964844 316.085938 L 163.964844 306.101562 L 164.777344 306.101562 L 164.777344 316.085938 "/>
<path style=" stroke:none;fill-rule:nonzero;fill:rgb(6.269836%,7.449341%,7.449341%);fill-opacity:1;" d="M 166.707031 316.085938 L 165.898438 316.085938 L 165.898438 309.683594 L 166.707031 309.683594 Z M 166.308594 308.398438 C 165.976562 308.398438 165.699219 308.125 165.699219 307.785156 C 165.699219 307.460938 165.976562 307.1875 166.308594 307.1875 C 166.636719 307.1875 166.910156 307.460938 166.910156 307.785156 C 166.910156 308.125 166.636719 308.398438 166.308594 308.398438 "/>
<path style=" stroke:none;fill-rule:nonzero;fill:rgb(6.269836%,7.449341%,7.449341%);fill-opacity:1;" d="M 168.640625 312.28125 L 168.667969 312.28125 L 170.226562 309.683594 L 171.152344 309.683594 L 169.242188 312.554688 L 171.648438 316.085938 L 170.640625 316.085938 L 168.667969 313.019531 L 168.640625 313.019531 L 168.640625 316.085938 L 167.832031 316.085938 L 167.832031 306.101562 L 168.640625 306.101562 L 168.640625 312.28125 "/>
<path style=" stroke:none;fill-rule:nonzero;fill:rgb(6.269836%,7.449341%,7.449341%);fill-opacity:1;" d="M 174.730469 312.367188 L 174.71875 312.257812 C 174.695312 311.644531 174.671875 310.34375 173.824219 310.34375 C 173.046875 310.34375 172.875 311.792969 172.875 312.367188 Z M 172.859375 313.054688 L 172.859375 313.242188 C 172.859375 313.878906 172.976562 315.425781 173.859375 315.425781 C 174.570312 315.425781 174.671875 314.425781 174.671875 313.917969 L 175.503906 313.917969 C 175.492188 314.890625 175.117188 316.1875 173.933594 316.1875 C 172.246094 316.1875 172.027344 314.191406 172.027344 312.902344 C 172.027344 311.753906 172.273438 309.585938 173.824219 309.585938 C 175.316406 309.585938 175.554688 311.542969 175.554688 312.667969 L 175.554688 313.054688 L 172.859375 313.054688 "/>
<path style=" stroke:none;fill-rule:nonzero;fill:rgb(6.269836%,7.449341%,7.449341%);fill-opacity:1;" d="M 181.53125 310.996094 L 181.503906 310.996094 C 181.269531 310.65625 180.894531 310.34375 180.445312 310.34375 C 179.960938 310.34375 179.648438 310.71875 179.648438 311.195312 C 179.648438 311.808594 180.171875 312.179688 180.683594 312.605469 C 181.207031 313.042969 181.71875 313.515625 181.71875 314.351562 C 181.71875 315.375 181.03125 316.1875 179.972656 316.1875 C 179.570312 316.1875 179.125 316.003906 178.8125 315.75 L 178.8125 314.800781 C 179.125 315.128906 179.460938 315.425781 179.949219 315.425781 C 180.507812 315.425781 180.882812 314.988281 180.882812 314.453125 C 180.882812 313.816406 180.371094 313.390625 179.847656 312.925781 C 179.335938 312.480469 178.8125 311.980469 178.8125 311.21875 C 178.8125 310.257812 179.449219 309.585938 180.410156 309.585938 C 180.820312 309.585938 181.207031 309.746094 181.53125 309.996094 L 181.53125 310.996094 "/>
<path style=" stroke:none;fill-rule:nonzero;fill:rgb(6.269836%,7.449341%,7.449341%);fill-opacity:1;" d="M 183.203125 312.878906 C 183.203125 313.503906 183.226562 315.425781 184.203125 315.425781 C 185.175781 315.425781 185.203125 313.503906 185.203125 312.878906 C 185.203125 312.265625 185.175781 310.34375 184.203125 310.34375 C 183.226562 310.34375 183.203125 312.265625 183.203125 312.878906 Z M 186.035156 312.878906 C 186.035156 314.089844 185.882812 316.1875 184.203125 316.1875 C 182.515625 316.1875 182.367188 314.089844 182.367188 312.878906 C 182.367188 311.679688 182.515625 309.585938 184.203125 309.585938 C 185.882812 309.585938 186.035156 311.679688 186.035156 312.878906 "/>
<path style=" stroke:none;fill-rule:nonzero;fill:rgb(6.269836%,7.449341%,7.449341%);fill-opacity:1;" d="M 187.792969 310.222656 L 187.820312 310.222656 C 188.105469 309.847656 188.546875 309.585938 189.03125 309.585938 C 189.554688 309.585938 190.003906 309.859375 190.21875 310.34375 C 190.550781 309.871094 190.949219 309.585938 191.539062 309.585938 C 192.734375 309.585938 192.835938 310.53125 192.835938 311.480469 L 192.835938 316.085938 L 192.023438 316.085938 L 192.023438 311.503906 C 192.023438 310.894531 191.960938 310.246094 191.300781 310.246094 C 190.339844 310.246094 190.3125 311.332031 190.3125 312.144531 L 190.3125 316.085938 L 189.503906 316.085938 L 189.503906 311.519531 C 189.503906 310.917969 189.464844 310.246094 188.804688 310.246094 C 187.820312 310.246094 187.792969 311.46875 187.792969 312.28125 L 187.792969 316.085938 L 186.984375 316.085938 L 186.984375 309.683594 L 187.792969 309.683594 L 187.792969 310.222656 "/>
<path style=" stroke:none;fill-rule:nonzero;fill:rgb(6.269836%,7.449341%,7.449341%);fill-opacity:1;" d="M 196.480469 312.367188 L 196.464844 312.257812 C 196.441406 311.644531 196.414062 310.34375 195.566406 310.34375 C 194.792969 310.34375 194.621094 311.792969 194.621094 312.367188 Z M 194.605469 313.054688 L 194.605469 313.242188 C 194.605469 313.878906 194.71875 315.425781 195.605469 315.425781 C 196.316406 315.425781 196.414062 314.425781 196.414062 313.917969 L 197.253906 313.917969 C 197.238281 314.890625 196.863281 316.1875 195.683594 316.1875 C 193.996094 316.1875 193.773438 314.191406 193.773438 312.902344 C 193.773438 311.753906 194.019531 309.585938 195.566406 309.585938 C 197.066406 309.585938 197.300781 311.542969 197.300781 312.667969 L 197.300781 313.054688 L 194.605469 313.054688 "/>
<path style=" stroke:none;fill-rule:nonzero;fill:rgb(6.269836%,7.449341%,7.449341%);fill-opacity:1;" d="M 200.445312 310.433594 L 199.386719 310.433594 L 199.386719 316.085938 L 198.578125 316.085938 L 198.578125 310.433594 L 197.890625 310.433594 L 197.890625 309.683594 L 198.578125 309.683594 L 198.578125 307.933594 L 199.386719 307.933594 L 199.386719 309.683594 L 200.445312 309.683594 L 200.445312 310.433594 "/>
<path style=" stroke:none;fill-rule:nonzero;fill:rgb(6.269836%,7.449341%,7.449341%);fill-opacity:1;" d="M 201.667969 310.195312 C 201.996094 309.820312 202.429688 309.585938 202.929688 309.585938 C 204.101562 309.585938 204.164062 310.605469 204.164062 311.503906 L 204.164062 316.085938 L 203.355469 316.085938 L 203.355469 311.644531 C 203.355469 310.644531 203.242188 310.246094 202.632812 310.246094 C 201.707031 310.246094 201.667969 311.257812 201.667969 311.929688 L 201.667969 316.085938 L 200.859375 316.085938 L 200.859375 306.101562 L 201.667969 306.101562 L 201.667969 310.195312 "/>
<path style=" stroke:none;fill-rule:nonzero;fill:rgb(6.269836%,7.449341%,7.449341%);fill-opacity:1;" d="M 206.097656 316.085938 L 205.289062 316.085938 L 205.289062 309.683594 L 206.097656 309.683594 Z M 205.699219 308.398438 C 205.363281 308.398438 205.085938 308.125 205.085938 307.785156 C 205.085938 307.460938 205.363281 307.1875 205.699219 307.1875 C 206.023438 307.1875 206.296875 307.460938 206.296875 307.785156 C 206.296875 308.125 206.023438 308.398438 205.699219 308.398438 "/>
<path style=" stroke:none;fill-rule:nonzero;fill:rgb(6.269836%,7.449341%,7.449341%);fill-opacity:1;" d="M 208.03125 310.195312 C 208.359375 309.820312 208.792969 309.585938 209.292969 309.585938 C 210.429688 309.585938 210.527344 310.632812 210.527344 311.503906 L 210.527344 316.085938 L 209.71875 316.085938 L 209.71875 311.59375 C 209.71875 310.832031 209.667969 310.246094 208.996094 310.246094 C 208.070312 310.246094 208.03125 311.257812 208.03125 311.929688 L 208.03125 316.085938 L 207.222656 316.085938 L 207.222656 309.683594 L 208.03125 309.683594 L 208.03125 310.195312 "/>
<path style=" stroke:none;fill-rule:nonzero;fill:rgb(6.269836%,7.449341%,7.449341%);fill-opacity:1;" d="M 213.308594 315.425781 C 214.171875 315.425781 214.207031 314.164062 214.207031 312.765625 C 214.207031 311.59375 214.132812 310.246094 213.246094 310.246094 C 212.664062 310.246094 212.300781 310.644531 212.300781 312.992188 C 212.300781 313.6875 212.289062 315.425781 213.308594 315.425781 Z M 214.945312 316.324219 C 214.945312 317.523438 214.894531 318.632812 213.273438 318.632812 C 212.152344 318.632812 211.628906 317.960938 211.628906 316.859375 L 211.628906 316.621094 L 212.425781 316.621094 L 212.425781 316.738281 C 212.425781 317.332031 212.585938 317.875 213.285156 317.875 C 214.199219 317.875 214.121094 317.074219 214.121094 316.386719 L 214.121094 315.640625 C 213.847656 315.953125 213.511719 316.085938 213.085938 316.085938 C 211.492188 316.085938 211.464844 313.878906 211.464844 312.742188 C 211.464844 311.667969 211.585938 309.585938 213.070312 309.585938 C 213.511719 309.585938 213.871094 309.78125 214.105469 310.121094 L 214.132812 310.121094 L 214.132812 309.683594 L 214.945312 309.683594 L 214.945312 316.324219 "/>
<path style=" stroke:none;fill-rule:nonzero;fill:rgb(6.269836%,7.449341%,7.449341%);fill-opacity:1;" d="M 222.84375 316.085938 L 222.003906 316.085938 L 221.269531 311.445312 C 221.234375 311.21875 221.234375 310.984375 221.207031 310.757812 L 221.171875 310.757812 C 221.132812 311.144531 221.105469 311.53125 221.046875 311.917969 L 220.359375 316.085938 L 219.535156 316.085938 L 218.238281 309.683594 L 219.0625 309.683594 L 219.671875 313.464844 C 219.75 313.953125 219.847656 314.425781 219.9375 314.914062 L 219.984375 314.914062 C 220.046875 314.425781 220.097656 313.953125 220.171875 313.464844 L 220.796875 309.683594 L 221.621094 309.683594 L 222.292969 314.113281 C 222.328125 314.375 222.367188 314.652344 222.40625 314.914062 L 222.445312 314.914062 C 222.503906 314.5 222.539062 314.078125 222.632812 313.664062 L 223.429688 309.683594 L 224.25 309.683594 L 222.84375 316.085938 "/>
<path style=" stroke:none;fill-rule:nonzero;fill:rgb(6.269836%,7.449341%,7.449341%);fill-opacity:1;" d="M 225.765625 310.53125 L 225.789062 310.53125 C 225.960938 310.082031 226.308594 309.570312 226.847656 309.585938 L 226.847656 310.53125 L 226.6875 310.519531 C 225.851562 310.519531 225.765625 311.332031 225.765625 312.355469 L 225.765625 316.085938 L 224.953125 316.085938 L 224.953125 309.683594 L 225.765625 309.683594 L 225.765625 310.53125 "/>
<path style=" stroke:none;fill-rule:nonzero;fill:rgb(6.269836%,7.449341%,7.449341%);fill-opacity:1;" d="M 228.160156 312.878906 C 228.160156 313.503906 228.183594 315.425781 229.15625 315.425781 C 230.128906 315.425781 230.152344 313.503906 230.152344 312.878906 C 230.152344 312.265625 230.128906 310.34375 229.15625 310.34375 C 228.183594 310.34375 228.160156 312.265625 228.160156 312.878906 Z M 230.992188 312.878906 C 230.992188 314.089844 230.839844 316.1875 229.15625 316.1875 C 227.472656 316.1875 227.324219 314.089844 227.324219 312.878906 C 227.324219 311.679688 227.472656 309.585938 229.15625 309.585938 C 230.839844 309.585938 230.992188 311.679688 230.992188 312.878906 "/>
<path style=" stroke:none;fill-rule:nonzero;fill:rgb(6.269836%,7.449341%,7.449341%);fill-opacity:1;" d="M 232.75 310.195312 C 233.070312 309.820312 233.511719 309.585938 234.011719 309.585938 C 235.144531 309.585938 235.242188 310.632812 235.242188 311.503906 L 235.242188 316.085938 L 234.433594 316.085938 L 234.433594 311.59375 C 234.433594 310.832031 234.382812 310.246094 233.707031 310.246094 C 232.789062 310.246094 232.75 311.257812 232.75 311.929688 L 232.75 316.085938 L 231.941406 316.085938 L 231.941406 309.683594 L 232.75 309.683594 L 232.75 310.195312 "/>
<path style=" stroke:none;fill-rule:nonzero;fill:rgb(6.269836%,7.449341%,7.449341%);fill-opacity:1;" d="M 238.027344 315.425781 C 238.890625 315.425781 238.925781 314.164062 238.925781 312.765625 C 238.925781 311.59375 238.851562 310.246094 237.964844 310.246094 C 237.378906 310.246094 237.015625 310.644531 237.015625 312.992188 C 237.015625 313.6875 237.003906 315.425781 238.027344 315.425781 Z M 239.660156 316.324219 C 239.660156 317.523438 239.613281 318.632812 237.992188 318.632812 C 236.867188 318.632812 236.34375 317.960938 236.34375 316.859375 L 236.34375 316.621094 L 237.144531 316.621094 L 237.144531 316.738281 C 237.144531 317.332031 237.304688 317.875 238 317.875 C 238.914062 317.875 238.839844 317.074219 238.839844 316.386719 L 238.839844 315.640625 C 238.5625 315.953125 238.226562 316.085938 237.804688 316.085938 C 236.203125 316.085938 236.179688 313.878906 236.179688 312.742188 C 236.179688 311.667969 236.304688 309.585938 237.789062 309.585938 C 238.226562 309.585938 238.585938 309.78125 238.824219 310.121094 L 238.851562 310.121094 L 238.851562 309.683594 L 239.660156 309.683594 L 239.660156 316.324219 "/>
<path style=" stroke:none;fill-rule:nonzero;fill:rgb(6.269836%,7.449341%,7.449341%);fill-opacity:1;" d="M 242.15625 315.550781 C 242.15625 315.898438 241.871094 316.1875 241.519531 316.1875 C 241.171875 316.1875 240.886719 315.898438 240.886719 315.550781 C 240.886719 315.199219 241.171875 314.914062 241.519531 314.914062 C 241.871094 314.914062 242.15625 315.199219 242.15625 315.550781 "/>
<path style=" stroke:none;fill-rule:nonzero;fill:rgb(6.269836%,7.449341%,7.449341%);fill-opacity:1;" d="M 158.515625 328.59375 L 157.71875 328.59375 L 156.769531 322.253906 C 156.71875 321.925781 156.695312 321.226562 156.65625 320.71875 L 156.609375 320.71875 C 156.558594 321.226562 156.519531 321.941406 156.472656 322.253906 L 155.375 328.59375 L 154.578125 328.59375 L 153.078125 319.179688 L 153.976562 319.179688 L 154.8125 325.472656 C 154.875 325.933594 154.910156 326.40625 154.960938 326.871094 L 155.011719 326.871094 C 155.074219 326.40625 155.113281 325.933594 155.1875 325.472656 L 156.273438 319.179688 L 157.019531 319.179688 L 157.917969 325.472656 C 157.980469 325.933594 158.042969 326.40625 158.105469 326.871094 L 158.15625 326.871094 C 158.203125 326.40625 158.242188 325.933594 158.316406 325.472656 L 159.289062 319.179688 L 160.175781 319.179688 L 158.515625 328.59375 "/>
<path style=" stroke:none;fill-rule:nonzero;fill:rgb(6.269836%,7.449341%,7.449341%);fill-opacity:1;" d="M 163.183594 324.871094 L 163.171875 324.761719 C 163.148438 324.152344 163.121094 322.847656 162.273438 322.847656 C 161.503906 322.847656 161.324219 324.296875 161.324219 324.871094 Z M 161.3125 325.558594 L 161.3125 325.746094 C 161.3125 326.382812 161.425781 327.933594 162.308594 327.933594 C 163.023438 327.933594 163.121094 326.929688 163.121094 326.421875 L 163.957031 326.421875 C 163.945312 327.394531 163.570312 328.695312 162.386719 328.695312 C 160.703125 328.695312 160.476562 326.695312 160.476562 325.40625 C 160.476562 324.261719 160.726562 322.089844 162.273438 322.089844 C 163.769531 322.089844 164.007812 324.050781 164.007812 325.171875 L 164.007812 325.558594 L 161.3125 325.558594 "/>
<path style=" stroke:none;fill-rule:nonzero;fill:rgb(6.269836%,7.449341%,7.449341%);fill-opacity:1;" d="M 169.136719 322.753906 C 168.238281 322.753906 168.1875 324.175781 168.1875 325.261719 C 168.1875 327.90625 168.625 328.03125 169.097656 328.03125 C 169.886719 328.03125 170.03125 327.296875 170.03125 325.285156 C 170.03125 323.898438 169.933594 322.753906 169.136719 322.753906 Z M 170.769531 328.59375 L 169.960938 328.59375 L 169.960938 328.09375 L 169.933594 328.09375 C 169.699219 328.453125 169.335938 328.695312 168.875 328.695312 C 167.851562 328.695312 167.351562 328.117188 167.351562 325.320312 C 167.351562 323.886719 167.402344 322.089844 168.945312 322.089844 C 169.394531 322.089844 169.683594 322.277344 169.933594 322.625 L 169.960938 322.625 L 169.960938 322.1875 L 170.769531 322.1875 L 170.769531 328.59375 "/>
<path style=" stroke:none;fill-rule:nonzero;fill:rgb(6.269836%,7.449341%,7.449341%);fill-opacity:1;" d="M 172.703125 323.039062 L 172.730469 323.039062 C 172.90625 322.589844 173.253906 322.078125 173.789062 322.089844 L 173.789062 323.039062 L 173.628906 323.023438 C 172.789062 323.023438 172.703125 323.835938 172.703125 324.863281 L 172.703125 328.59375 L 171.890625 328.59375 L 171.890625 322.1875 L 172.703125 322.1875 L 172.703125 323.039062 "/>
<path style=" stroke:none;fill-rule:nonzero;fill:rgb(6.269836%,7.449341%,7.449341%);fill-opacity:1;" d="M 176.972656 324.871094 L 176.957031 324.761719 C 176.933594 324.152344 176.910156 322.847656 176.0625 322.847656 C 175.285156 322.847656 175.113281 324.296875 175.113281 324.871094 Z M 175.097656 325.558594 L 175.097656 325.746094 C 175.097656 326.382812 175.214844 327.933594 176.097656 327.933594 C 176.808594 327.933594 176.910156 326.929688 176.910156 326.421875 L 177.742188 326.421875 C 177.734375 327.394531 177.355469 328.695312 176.171875 328.695312 C 174.488281 328.695312 174.265625 326.695312 174.265625 325.40625 C 174.265625 324.261719 174.511719 322.089844 176.0625 322.089844 C 177.558594 322.089844 177.792969 324.050781 177.792969 325.171875 L 177.792969 325.558594 L 175.097656 325.558594 "/>
<path style=" stroke:none;fill-rule:nonzero;fill:rgb(6.269836%,7.449341%,7.449341%);fill-opacity:1;" d="M 185.507812 328.59375 L 184.667969 328.59375 L 183.929688 323.949219 C 183.894531 323.726562 183.894531 323.488281 183.871094 323.261719 L 183.835938 323.261719 C 183.796875 323.652344 183.769531 324.035156 183.710938 324.421875 L 183.023438 328.59375 L 182.199219 328.59375 L 180.902344 322.1875 L 181.726562 322.1875 L 182.335938 325.972656 C 182.410156 326.457031 182.511719 326.929688 182.597656 327.421875 L 182.648438 327.421875 C 182.710938 326.929688 182.761719 326.457031 182.835938 325.972656 L 183.457031 322.1875 L 184.28125 322.1875 L 184.957031 326.621094 C 184.992188 326.878906 185.03125 327.160156 185.066406 327.421875 L 185.105469 327.421875 C 185.167969 327.007812 185.203125 326.582031 185.292969 326.167969 L 186.09375 322.1875 L 186.914062 322.1875 L 185.507812 328.59375 "/>
<path style=" stroke:none;fill-rule:nonzero;fill:rgb(6.269836%,7.449341%,7.449341%);fill-opacity:1;" d="M 188.265625 325.382812 C 188.265625 326.007812 188.289062 327.933594 189.261719 327.933594 C 190.234375 327.933594 190.257812 326.007812 190.257812 325.382812 C 190.257812 324.769531 190.234375 322.847656 189.261719 322.847656 C 188.289062 322.847656 188.265625 324.769531 188.265625 325.382812 Z M 191.09375 325.382812 C 191.09375 326.59375 190.945312 328.695312 189.261719 328.695312 C 187.578125 328.695312 187.425781 326.59375 187.425781 325.382812 C 187.425781 324.1875 187.578125 322.089844 189.261719 322.089844 C 190.945312 322.089844 191.09375 324.1875 191.09375 325.382812 "/>
<path style=" stroke:none;fill-rule:nonzero;fill:rgb(6.269836%,7.449341%,7.449341%);fill-opacity:1;" d="M 192.855469 323.039062 L 192.882812 323.039062 C 193.054688 322.589844 193.402344 322.078125 193.941406 322.089844 L 193.941406 323.039062 L 193.777344 323.023438 C 192.941406 323.023438 192.855469 323.835938 192.855469 324.863281 L 192.855469 328.59375 L 192.042969 328.59375 L 192.042969 322.1875 L 192.855469 322.1875 L 192.855469 323.039062 "/>
<path style=" stroke:none;fill-rule:nonzero;fill:rgb(6.269836%,7.449341%,7.449341%);fill-opacity:1;" d="M 195.410156 324.785156 L 195.4375 324.785156 L 196.996094 322.1875 L 197.921875 322.1875 L 196.011719 325.058594 L 198.417969 328.59375 L 197.40625 328.59375 L 195.4375 325.523438 L 195.410156 325.523438 L 195.410156 328.59375 L 194.601562 328.59375 L 194.601562 318.609375 L 195.410156 318.609375 L 195.410156 324.785156 "/>
<path style=" stroke:none;fill-rule:nonzero;fill:rgb(6.269836%,7.449341%,7.449341%);fill-opacity:1;" d="M 199.792969 328.59375 L 198.984375 328.59375 L 198.984375 322.1875 L 199.792969 322.1875 Z M 199.394531 320.902344 C 199.054688 320.902344 198.78125 320.628906 198.78125 320.292969 C 198.78125 319.964844 199.054688 319.691406 199.394531 319.691406 C 199.714844 319.691406 199.992188 319.964844 199.992188 320.292969 C 199.992188 320.628906 199.714844 320.902344 199.394531 320.902344 "/>
<path style=" stroke:none;fill-rule:nonzero;fill:rgb(6.269836%,7.449341%,7.449341%);fill-opacity:1;" d="M 201.726562 322.699219 C 202.046875 322.328125 202.488281 322.089844 202.988281 322.089844 C 204.117188 322.089844 204.21875 323.136719 204.21875 324.011719 L 204.21875 328.59375 L 203.410156 328.59375 L 203.410156 324.097656 C 203.410156 323.335938 203.359375 322.753906 202.683594 322.753906 C 201.761719 322.753906 201.726562 323.761719 201.726562 324.4375 L 201.726562 328.59375 L 200.914062 328.59375 L 200.914062 322.1875 L 201.726562 322.1875 L 201.726562 322.699219 "/>
<path style=" stroke:none;fill-rule:nonzero;fill:rgb(6.269836%,7.449341%,7.449341%);fill-opacity:1;" d="M 207.003906 327.933594 C 207.863281 327.933594 207.902344 326.667969 207.902344 325.269531 C 207.902344 324.097656 207.828125 322.753906 206.941406 322.753906 C 206.355469 322.753906 205.992188 323.152344 205.992188 325.5 C 205.992188 326.195312 205.980469 327.933594 207.003906 327.933594 Z M 208.636719 328.832031 C 208.636719 330.027344 208.589844 331.140625 206.96875 331.140625 C 205.839844 331.140625 205.320312 330.464844 205.320312 329.367188 L 205.320312 329.128906 L 206.121094 329.128906 L 206.121094 329.242188 C 206.121094 329.839844 206.28125 330.378906 206.976562 330.378906 C 207.886719 330.378906 207.816406 329.578125 207.816406 328.890625 L 207.816406 328.144531 C 207.539062 328.453125 207.203125 328.59375 206.78125 328.59375 C 205.179688 328.59375 205.15625 326.382812 205.15625 325.246094 C 205.15625 324.175781 205.28125 322.089844 206.765625 322.089844 C 207.203125 322.089844 207.5625 322.289062 207.800781 322.625 L 207.828125 322.625 L 207.828125 322.1875 L 208.636719 322.1875 L 208.636719 328.832031 "/>
<path style=" stroke:none;fill-rule:nonzero;fill:rgb(6.269836%,7.449341%,7.449341%);fill-opacity:1;" d="M 213.003906 325.382812 C 213.003906 326.007812 213.027344 327.933594 214.003906 327.933594 C 214.976562 327.933594 215 326.007812 215 325.382812 C 215 324.769531 214.976562 322.847656 214.003906 322.847656 C 213.027344 322.847656 213.003906 324.769531 213.003906 325.382812 Z M 215.835938 325.382812 C 215.835938 326.59375 215.683594 328.695312 214.003906 328.695312 C 212.316406 328.695312 212.167969 326.59375 212.167969 325.382812 C 212.167969 324.1875 212.316406 322.089844 214.003906 322.089844 C 215.683594 322.089844 215.835938 324.1875 215.835938 325.382812 "/>
<path style=" stroke:none;fill-rule:nonzero;fill:rgb(6.269836%,7.449341%,7.449341%);fill-opacity:1;" d="M 217.59375 322.699219 C 217.921875 322.328125 218.355469 322.089844 218.855469 322.089844 C 219.992188 322.089844 220.089844 323.136719 220.089844 324.011719 L 220.089844 328.59375 L 219.28125 328.59375 L 219.28125 324.097656 C 219.28125 323.335938 219.230469 322.753906 218.558594 322.753906 C 217.632812 322.753906 217.59375 323.761719 217.59375 324.4375 L 217.59375 328.59375 L 216.785156 328.59375 L 216.785156 322.1875 L 217.59375 322.1875 L 217.59375 322.699219 "/>
<path style=" stroke:none;fill-rule:nonzero;fill:rgb(6.269836%,7.449341%,7.449341%);fill-opacity:1;" d="M 224.621094 328.59375 L 223.8125 328.59375 L 223.8125 322.1875 L 224.621094 322.1875 Z M 224.222656 320.902344 C 223.882812 320.902344 223.609375 320.628906 223.609375 320.292969 C 223.609375 319.964844 223.882812 319.691406 224.222656 319.691406 C 224.542969 319.691406 224.820312 319.964844 224.820312 320.292969 C 224.820312 320.628906 224.542969 320.902344 224.222656 320.902344 "/>
<path style=" stroke:none;fill-rule:nonzero;fill:rgb(6.269836%,7.449341%,7.449341%);fill-opacity:1;" d="M 227.953125 322.9375 L 226.890625 322.9375 L 226.890625 328.59375 L 226.078125 328.59375 L 226.078125 322.9375 L 225.394531 322.9375 L 225.394531 322.1875 L 226.078125 322.1875 L 226.078125 320.441406 L 226.890625 320.441406 L 226.890625 322.1875 L 227.953125 322.1875 L 227.953125 322.9375 "/>
<path style=" stroke:none;fill-rule:nonzero;fill:rgb(6.269836%,7.449341%,7.449341%);fill-opacity:1;" d="M 229.734375 328.058594 C 229.734375 328.40625 229.449219 328.695312 229.101562 328.695312 C 228.75 328.695312 228.464844 328.40625 228.464844 328.058594 C 228.464844 327.707031 228.75 327.421875 229.101562 327.421875 C 229.449219 327.421875 229.734375 327.707031 229.734375 328.058594 "/>
</g>
</svg>
