<?xml version="1.0" encoding="UTF-8"?>
<svg xmlns="http://www.w3.org/2000/svg" xmlns:xlink="http://www.w3.org/1999/xlink" width="384pt" height="383.999986pt" viewBox="0 0 384 383.999986" version="1.2">
<defs>
<clipPath id="clip1">
  <path d="M 43.027344 277 L 355.929688 277 L 355.929688 348.175781 L 43.027344 348.175781 Z M 43.027344 277 "/>
</clipPath>
<clipPath id="clip2">
  <path d="M 43.027344 275.242188 L 355.929688 275.242188 L 355.929688 348.175781 L 43.027344 348.175781 Z M 43.027344 275.242188 "/>
</clipPath>
<clipPath id="clip3">
  <path d="M 43.027344 298.03125 L 355.929688 298.03125 L 355.929688 348.175781 L 43.027344 348.175781 Z M 43.027344 298.03125 "/>
</clipPath>
<clipPath id="clip4">
  <path d="M 174.015625 327.441406 L 223 327.441406 L 223 348.175781 L 174.015625 348.175781 Z M 174.015625 327.441406 "/>
</clipPath>
<clipPath id="clip5">
  <path d="M 210.8125 337 L 259.378906 337 L 259.378906 348.175781 L 210.8125 348.175781 Z M 210.8125 337 "/>
</clipPath>
<clipPath id="clip6">
  <path d="M 247 347.292969 L 296 347.292969 L 296 348.175781 L 247 348.175781 Z M 247 347.292969 "/>
</clipPath>
<clipPath id="clip7">
  <path d="M 74.671875 53.199219 L 324 53.199219 L 324 348.175781 L 74.671875 348.175781 Z M 74.671875 53.199219 "/>
</clipPath>
<clipPath id="clip8">
  <path d="M 73.199219 51.730469 L 325.609375 51.730469 L 325.609375 348.175781 L 73.199219 348.175781 Z M 73.199219 51.730469 "/>
</clipPath>
<clipPath id="clip9">
  <path d="M 76.144531 54.671875 L 322.667969 54.671875 L 322.667969 348.175781 L 76.144531 348.175781 Z M 76.144531 54.671875 "/>
</clipPath>
<clipPath id="clip10">
  <path d="M 334 217.15625 L 355.929688 217.15625 L 355.929688 244.359375 L 334 244.359375 Z M 334 217.15625 "/>
</clipPath>
<clipPath id="clip11">
  <path d="M 333 216.421875 L 355.929688 216.421875 L 355.929688 245.097656 L 333 245.097656 Z M 333 216.421875 "/>
</clipPath>
<clipPath id="clip12">
  <path d="M 345.480469 218 L 355.929688 218 L 355.929688 234.804688 L 345.480469 234.804688 Z M 345.480469 218 "/>
</clipPath>
<clipPath id="clip13">
  <path d="M 324.136719 165 L 355.929688 165 L 355.929688 210 L 324.136719 210 Z M 324.136719 165 "/>
</clipPath>
<clipPath id="clip14">
  <path d="M 323.402344 164.21875 L 355.929688 164.21875 L 355.929688 211 L 323.402344 211 Z M 323.402344 164.21875 "/>
</clipPath>
<clipPath id="clip15">
  <path d="M 325 166.425781 L 355.929688 166.425781 L 355.929688 209.070312 L 325 209.070312 Z M 325 166.425781 "/>
</clipPath>
<clipPath id="clip16">
  <path d="M 329 169.367188 L 355.929688 169.367188 L 355.929688 198 L 329 198 Z M 329 169.367188 "/>
</clipPath>
<clipPath id="clip17">
  <path d="M 328 169 L 355.929688 169 L 355.929688 199 L 328 199 Z M 328 169 "/>
</clipPath>
<clipPath id="clip18">
  <path d="M 331.496094 172.308594 L 355.929688 172.308594 L 355.929688 202.453125 L 331.496094 202.453125 Z M 331.496094 172.308594 "/>
</clipPath>
<clipPath id="clip19">
  <path d="M 331 172 L 355.929688 172 L 355.929688 203.1875 L 331 203.1875 Z M 331 172 "/>
</clipPath>
<clipPath id="clip20">
  <path d="M 336 176.71875 L 355.929688 176.71875 L 355.929688 205 L 336 205 Z M 336 176.71875 "/>
</clipPath>
<clipPath id="clip21">
  <path d="M 335.175781 176 L 355.929688 176 L 355.929688 206 L 335.175781 206 Z M 335.175781 176 "/>
</clipPath>
<clipPath id="clip22">
  <path d="M 43.027344 35.554688 L 355.929688 35.554688 L 355.929688 153.925781 L 43.027344 153.925781 Z M 43.027344 35.554688 "/>
</clipPath>
<clipPath id="clip23">
  <path d="M 43.027344 35.554688 L 355.929688 35.554688 L 355.929688 155 L 43.027344 155 Z M 43.027344 35.554688 "/>
</clipPath>
<clipPath id="clip24">
  <path d="M 43.027344 52.464844 L 355.929688 52.464844 L 355.929688 152.457031 L 43.027344 152.457031 Z M 43.027344 52.464844 "/>
</clipPath>
<clipPath id="clip25">
  <path d="M 309.421875 118.636719 L 355.929688 118.636719 L 355.929688 139.957031 L 309.421875 139.957031 Z M 309.421875 118.636719 "/>
</clipPath>
<clipPath id="clip26">
  <path d="M 346 132 L 355.929688 132 L 355.929688 150 L 346 150 Z M 346 132 "/>
</clipPath>
</defs>
<g id="surface1">
<g clip-path="url(#clip1)" clip-rule="nonzero">
<path style=" stroke:none;fill-rule:nonzero;fill:rgb(97.648621%,90.589905%,11.759949%);fill-opacity:1;" d="M 371.363281 399.257812 C 371.234375 399.257812 371.101562 399.242188 370.976562 399.207031 L 27.699219 305.246094 C 27.058594 305.070312 26.617188 304.492188 26.617188 303.828125 L 26.617188 278.867188 C 26.617188 278.410156 26.828125 277.976562 27.195312 277.699219 C 27.457031 277.5 27.769531 277.398438 28.089844 277.398438 C 28.21875 277.398438 28.351562 277.414062 28.476562 277.453125 L 371.753906 371.410156 C 372.394531 371.585938 372.835938 372.164062 372.835938 372.828125 L 372.835938 397.789062 C 372.835938 398.25 372.625 398.683594 372.257812 398.957031 C 371.996094 399.15625 371.683594 399.257812 371.363281 399.257812 "/>
</g>
<g clip-path="url(#clip2)" clip-rule="nonzero">
<path style=" stroke:none;fill-rule:nonzero;fill:rgb(35.289001%,13.729858%,10.978699%);fill-opacity:1;" d="M 28.089844 275.925781 C 27.449219 275.925781 26.820312 276.136719 26.304688 276.53125 C 25.574219 277.085938 25.144531 277.953125 25.144531 278.867188 L 25.144531 303.828125 C 25.144531 305.15625 26.03125 306.316406 27.3125 306.667969 L 370.585938 400.625 C 370.84375 400.695312 371.101562 400.730469 371.363281 400.730469 C 372.003906 400.730469 372.628906 400.523438 373.148438 400.128906 C 373.878906 399.574219 374.308594 398.707031 374.308594 397.789062 L 374.308594 372.828125 C 374.308594 371.503906 373.421875 370.339844 372.140625 369.992188 L 28.867188 276.035156 C 28.609375 275.960938 28.347656 275.925781 28.089844 275.925781 Z M 28.089844 278.867188 L 371.363281 372.828125 L 371.363281 397.789062 L 28.089844 303.828125 L 28.089844 278.867188 "/>
</g>
<g clip-path="url(#clip3)" clip-rule="nonzero">
<path style=" stroke:none;fill-rule:nonzero;fill:rgb(77.249146%,62.348938%,12.939453%);fill-opacity:1;" d="M 371.363281 381.351562 C 356.296875 378.988281 335.902344 375.277344 308.316406 369.511719 C 251.105469 357.539062 163.484375 334.855469 28.089844 298.179688 L 28.089844 304.175781 L 371.363281 398.136719 L 371.363281 381.351562 "/>
</g>
<path style=" stroke:none;fill-rule:nonzero;fill:rgb(35.289001%,13.729858%,10.978699%);fill-opacity:1;" d="M 60.984375 287.765625 L 29.234375 304.167969 L 45.863281 308.714844 L 77.601562 292.316406 L 60.984375 287.765625 "/>
<path style=" stroke:none;fill-rule:nonzero;fill:rgb(35.289001%,13.729858%,10.978699%);fill-opacity:1;" d="M 97.320312 297.710938 L 65.546875 314.105469 L 82.1875 318.660156 L 113.941406 302.261719 L 97.320312 297.710938 "/>
<path style=" stroke:none;fill-rule:nonzero;fill:rgb(35.289001%,13.729858%,10.978699%);fill-opacity:1;" d="M 133.648438 307.65625 L 101.890625 324.054688 L 118.519531 328.605469 L 150.269531 312.207031 L 133.648438 307.65625 "/>
<path style=" stroke:none;fill-rule:nonzero;fill:rgb(35.289001%,13.729858%,10.978699%);fill-opacity:1;" d="M 169.976562 317.597656 L 138.21875 333.996094 L 154.832031 338.546875 L 186.601562 322.148438 L 169.976562 317.597656 "/>
<g clip-path="url(#clip4)" clip-rule="nonzero">
<path style=" stroke:none;fill-rule:nonzero;fill:rgb(35.289001%,13.729858%,10.978699%);fill-opacity:1;" d="M 206.300781 327.542969 L 174.546875 343.9375 L 191.171875 348.488281 L 222.9375 332.09375 L 206.300781 327.542969 "/>
</g>
<g clip-path="url(#clip5)" clip-rule="nonzero">
<path style=" stroke:none;fill-rule:nonzero;fill:rgb(35.289001%,13.729858%,10.978699%);fill-opacity:1;" d="M 242.644531 337.488281 L 210.875 353.882812 L 227.507812 358.433594 L 259.257812 342.039062 L 242.644531 337.488281 "/>
</g>
<g clip-path="url(#clip6)" clip-rule="nonzero">
<path style=" stroke:none;fill-rule:nonzero;fill:rgb(35.289001%,13.729858%,10.978699%);fill-opacity:1;" d="M 278.96875 347.429688 L 247.210938 363.828125 L 263.828125 368.378906 L 295.589844 351.980469 L 278.96875 347.429688 "/>
</g>
<g clip-path="url(#clip7)" clip-rule="nonzero">
<path style=" stroke:none;fill-rule:nonzero;fill:rgb(91.369629%,91.369629%,91.369629%);fill-opacity:1;" d="M 101.449219 370.914062 C 86.777344 370.914062 74.835938 358.984375 74.835938 344.324219 L 74.835938 79.859375 C 74.835938 65.207031 86.777344 53.285156 101.449219 53.285156 L 297.132812 53.285156 C 311.816406 53.285156 323.765625 65.207031 323.765625 79.859375 L 323.765625 344.324219 C 323.765625 358.984375 311.816406 370.914062 297.132812 370.914062 L 101.449219 370.914062 "/>
</g>
<g clip-path="url(#clip8)" clip-rule="nonzero">
<path style=" stroke:none;fill-rule:nonzero;fill:rgb(35.289001%,13.729858%,10.978699%);fill-opacity:1;" d="M 297.132812 51.8125 L 101.449219 51.8125 C 85.960938 51.8125 73.363281 64.394531 73.363281 79.859375 L 73.363281 344.324219 C 73.363281 359.796875 85.960938 372.382812 101.449219 372.382812 L 297.132812 372.382812 C 312.628906 372.382812 325.238281 359.796875 325.238281 344.324219 L 325.238281 79.859375 C 325.238281 64.394531 312.628906 51.8125 297.132812 51.8125 Z M 297.132812 54.753906 C 311.019531 54.753906 322.292969 65.996094 322.292969 79.859375 L 322.292969 344.324219 C 322.292969 358.210938 311.019531 369.441406 297.132812 369.441406 L 101.449219 369.441406 C 87.558594 369.441406 76.304688 358.210938 76.304688 344.324219 L 76.304688 79.859375 C 76.304688 65.996094 87.558594 54.753906 101.449219 54.753906 L 297.132812 54.753906 "/>
</g>
<g clip-path="url(#clip9)" clip-rule="nonzero">
<path style=" stroke:none;fill-rule:nonzero;fill:rgb(75.689697%,75.289917%,75.689697%);fill-opacity:1;" d="M 297.132812 54.753906 L 244.957031 54.753906 C 277.246094 81.988281 298.023438 122.570312 298.023438 167.300781 C 298.023438 247.71875 230.839844 314.820312 150.347656 314.820312 C 123.53125 314.820312 98.175781 307.351562 76.304688 294.429688 L 76.304688 344.324219 C 76.304688 358.210938 87.558594 369.441406 101.449219 369.441406 L 297.132812 369.441406 C 311.019531 369.441406 322.292969 358.210938 322.292969 344.324219 L 322.292969 79.859375 C 322.292969 65.996094 311.019531 54.753906 297.132812 54.753906 "/>
</g>
<path style=" stroke:none;fill-rule:nonzero;fill:rgb(35.289001%,13.729858%,10.978699%);fill-opacity:1;" d="M 160.988281 255.136719 C 160.988281 266.320312 151.898438 275.40625 140.6875 275.40625 C 129.484375 275.40625 120.386719 266.320312 120.386719 255.136719 C 120.386719 243.933594 129.484375 234.84375 140.6875 234.84375 C 151.898438 234.84375 160.988281 243.933594 160.988281 255.136719 "/>
<path style=" stroke:none;fill-rule:nonzero;fill:rgb(100%,100%,100%);fill-opacity:1;" d="M 144.015625 249.125 C 144.015625 254.40625 139.730469 258.6875 134.4375 258.6875 C 129.160156 258.6875 124.871094 254.40625 124.871094 249.125 C 124.871094 243.835938 129.160156 239.5625 134.4375 239.5625 C 139.730469 239.5625 144.015625 243.835938 144.015625 249.125 "/>
<path style=" stroke:none;fill-rule:nonzero;fill:rgb(100%,100%,100%);fill-opacity:1;" d="M 148.335938 259.601562 C 148.335938 261.410156 146.875 262.898438 145.03125 262.898438 C 143.199219 262.898438 141.71875 261.410156 141.71875 259.601562 C 141.71875 257.753906 143.199219 256.273438 145.03125 256.273438 C 146.875 256.273438 148.335938 257.753906 148.335938 259.601562 "/>
<path style=" stroke:none;fill-rule:nonzero;fill:rgb(35.289001%,13.729858%,10.978699%);fill-opacity:1;" d="M 278.1875 255.136719 C 278.1875 266.320312 269.101562 275.40625 257.894531 275.40625 C 246.6875 275.40625 237.601562 266.320312 237.601562 255.136719 C 237.601562 243.933594 246.6875 234.84375 257.894531 234.84375 C 269.101562 234.84375 278.1875 243.933594 278.1875 255.136719 "/>
<path style=" stroke:none;fill-rule:nonzero;fill:rgb(100%,100%,100%);fill-opacity:1;" d="M 261.214844 249.125 C 261.214844 254.40625 256.914062 258.6875 251.636719 258.6875 C 246.371094 258.6875 242.066406 254.40625 242.066406 249.125 C 242.066406 243.835938 246.371094 239.5625 251.636719 239.5625 C 256.914062 239.5625 261.214844 243.835938 261.214844 249.125 "/>
<path style=" stroke:none;fill-rule:nonzero;fill:rgb(100%,100%,100%);fill-opacity:1;" d="M 265.558594 259.601562 C 265.558594 261.410156 264.066406 262.898438 262.253906 262.898438 C 260.386719 262.898438 258.929688 261.410156 258.929688 259.601562 C 258.929688 257.753906 260.386719 256.273438 262.253906 256.273438 C 264.066406 256.273438 265.558594 257.753906 265.558594 259.601562 "/>
<path style=" stroke:none;fill-rule:nonzero;fill:rgb(35.289001%,13.729858%,10.978699%);fill-opacity:1;" d="M 245.996094 322.558594 C 245.925781 322.476562 241.433594 317.253906 232.816406 312.027344 C 224.199219 306.804688 211.429688 301.582031 194.894531 301.582031 C 180.3125 301.585938 168.402344 306.828125 160.160156 312.042969 C 151.910156 317.265625 147.296875 322.472656 147.230469 322.542969 C 146.695312 323.152344 146.75 324.082031 147.359375 324.617188 C 147.96875 325.15625 148.898438 325.097656 149.4375 324.488281 L 149.445312 324.484375 C 149.65625 324.242188 154.203125 319.222656 162.105469 314.292969 C 170.015625 309.355469 181.25 304.523438 194.894531 304.523438 C 210.800781 304.527344 223.023438 309.535156 231.289062 314.542969 C 235.421875 317.046875 238.554688 319.550781 240.652344 321.417969 C 241.699219 322.351562 242.484375 323.125 243.007812 323.660156 C 243.265625 323.929688 243.457031 324.136719 243.582031 324.277344 C 243.648438 324.347656 243.691406 324.398438 243.726562 324.429688 L 243.757812 324.46875 L 243.761719 324.472656 L 243.835938 324.410156 L 243.761719 324.472656 L 243.835938 324.410156 L 243.761719 324.472656 C 244.289062 325.089844 245.21875 325.160156 245.835938 324.632812 C 246.453125 324.105469 246.523438 323.175781 245.996094 322.558594 "/>
<path style=" stroke:none;fill-rule:nonzero;fill:rgb(35.289001%,13.729858%,10.978699%);fill-opacity:1;" d="M 154.933594 158.226562 L 154.933594 133.726562 L 144.613281 158.226562 Z M 135.058594 158.226562 L 153.988281 113.492188 L 165.347656 113.492188 L 165.347656 158.226562 L 170.273438 158.226562 L 170.273438 167.679688 L 165.347656 167.679688 L 165.347656 179.691406 L 154.933594 179.691406 L 154.933594 167.679688 L 135.058594 167.679688 L 135.058594 158.226562 "/>
<path style=" stroke:none;fill-rule:nonzero;fill:rgb(35.289001%,13.729858%,10.978699%);fill-opacity:1;" d="M 184.570312 164.457031 C 184.570312 169.1875 186.636719 170.980469 189.957031 170.980469 C 193.269531 170.980469 195.351562 169.1875 195.351562 164.457031 L 195.351562 128.714844 C 195.351562 123.976562 193.269531 122.195312 189.957031 122.195312 C 186.636719 122.195312 184.570312 123.976562 184.570312 128.714844 Z M 174.144531 129.378906 C 174.144531 118.785156 179.742188 112.738281 189.957031 112.738281 C 200.179688 112.738281 205.765625 118.785156 205.765625 129.378906 L 205.765625 163.796875 C 205.765625 174.390625 200.179688 180.449219 189.957031 180.449219 C 179.742188 180.449219 174.144531 174.390625 174.144531 163.796875 L 174.144531 129.378906 "/>
<path style=" stroke:none;fill-rule:nonzero;fill:rgb(35.289001%,13.729858%,10.978699%);fill-opacity:1;" d="M 229.902344 158.226562 L 229.902344 133.726562 L 219.589844 158.226562 Z M 210.027344 158.226562 L 228.957031 113.492188 L 240.3125 113.492188 L 240.3125 158.226562 L 245.238281 158.226562 L 245.238281 167.679688 L 240.3125 167.679688 L 240.3125 179.691406 L 229.902344 179.691406 L 229.902344 167.679688 L 210.027344 167.679688 L 210.027344 158.226562 "/>
<path style=" stroke:none;fill-rule:nonzero;fill:rgb(35.289001%,13.729858%,10.978699%);fill-opacity:1;" d="M 156.527344 195.675781 L 162.527344 195.675781 L 162.527344 199.65625 L 156.527344 199.65625 L 156.527344 207.804688 L 164.078125 207.804688 L 164.078125 211.773438 L 152.148438 211.773438 L 152.148438 183.957031 L 164.078125 183.957031 L 164.078125 187.933594 L 156.527344 187.933594 L 156.527344 195.675781 "/>
<path style=" stroke:none;fill-rule:nonzero;fill:rgb(35.289001%,13.729858%,10.978699%);fill-opacity:1;" d="M 171.160156 187.933594 L 171.160156 196.476562 L 172.878906 196.476562 C 174.511719 196.476562 175.503906 195.757812 175.503906 193.535156 L 175.503906 190.792969 C 175.503906 188.8125 174.824219 187.933594 173.277344 187.933594 Z M 175.9375 211.773438 C 175.699219 211.0625 175.542969 210.613281 175.542969 208.363281 L 175.542969 203.984375 C 175.542969 201.40625 174.667969 200.449219 172.679688 200.449219 L 171.160156 200.449219 L 171.160156 211.773438 L 166.796875 211.773438 L 166.796875 183.957031 L 173.394531 183.957031 C 177.929688 183.957031 179.878906 186.0625 179.878906 190.359375 L 179.878906 192.539062 C 179.878906 195.410156 178.964844 197.273438 177.007812 198.183594 C 179.203125 199.09375 179.914062 201.210938 179.914062 204.105469 L 179.914062 208.402344 C 179.914062 209.746094 179.960938 210.746094 180.390625 211.773438 L 175.9375 211.773438 "/>
<path style=" stroke:none;fill-rule:nonzero;fill:rgb(35.289001%,13.729858%,10.978699%);fill-opacity:1;" d="M 187.160156 187.933594 L 187.160156 196.476562 L 188.878906 196.476562 C 190.503906 196.476562 191.503906 195.757812 191.503906 193.535156 L 191.503906 190.792969 C 191.503906 188.8125 190.820312 187.933594 189.269531 187.933594 Z M 191.929688 211.773438 C 191.699219 211.0625 191.539062 210.613281 191.539062 208.363281 L 191.539062 203.984375 C 191.539062 201.40625 190.664062 200.449219 188.671875 200.449219 L 187.160156 200.449219 L 187.160156 211.773438 L 182.792969 211.773438 L 182.792969 183.957031 L 189.390625 183.957031 C 193.925781 183.957031 195.867188 186.0625 195.867188 190.359375 L 195.867188 192.539062 C 195.867188 195.410156 194.964844 197.273438 193.015625 198.183594 C 195.191406 199.09375 195.90625 201.210938 195.90625 204.105469 L 195.90625 208.402344 C 195.90625 209.746094 195.957031 210.746094 196.390625 211.773438 L 191.929688 211.773438 "/>
<path style=" stroke:none;fill-rule:nonzero;fill:rgb(35.289001%,13.729858%,10.978699%);fill-opacity:1;" d="M 202.808594 205.382812 C 202.808594 207.367188 203.679688 208.121094 205.074219 208.121094 C 206.46875 208.121094 207.339844 207.367188 207.339844 205.382812 L 207.339844 190.359375 C 207.339844 188.371094 206.46875 187.605469 205.074219 187.605469 C 203.679688 187.605469 202.808594 188.371094 202.808594 190.359375 Z M 198.421875 190.644531 C 198.421875 186.183594 200.777344 183.636719 205.074219 183.636719 C 209.363281 183.636719 211.714844 186.183594 211.714844 190.644531 L 211.714844 205.105469 C 211.714844 209.554688 209.363281 212.101562 205.074219 212.101562 C 200.777344 212.101562 198.421875 209.554688 198.421875 205.105469 L 198.421875 190.644531 "/>
<path style=" stroke:none;fill-rule:nonzero;fill:rgb(35.289001%,13.729858%,10.978699%);fill-opacity:1;" d="M 218.921875 187.933594 L 218.921875 196.476562 L 220.636719 196.476562 C 222.261719 196.476562 223.253906 195.757812 223.253906 193.535156 L 223.253906 190.792969 C 223.253906 188.8125 222.578125 187.933594 221.03125 187.933594 Z M 223.699219 211.773438 C 223.460938 211.0625 223.292969 210.613281 223.292969 208.363281 L 223.292969 203.984375 C 223.292969 201.40625 222.425781 200.449219 220.433594 200.449219 L 218.921875 200.449219 L 218.921875 211.773438 L 214.550781 211.773438 L 214.550781 183.957031 L 221.144531 183.957031 C 225.683594 183.957031 227.640625 186.0625 227.640625 190.359375 L 227.640625 192.539062 C 227.640625 195.410156 226.71875 197.273438 224.765625 198.183594 C 226.953125 199.09375 227.675781 201.210938 227.675781 204.105469 L 227.675781 208.402344 C 227.675781 209.746094 227.707031 210.746094 228.148438 211.773438 L 223.699219 211.773438 "/>
<path style=" stroke:none;fill-rule:nonzero;fill:rgb(62.748718%,64.309692%,63.919067%);fill-opacity:1;" d="M 338.601562 231.246094 C 338.382812 231.246094 338.175781 231.160156 338.023438 231.007812 L 293.878906 186.902344 C 293.558594 186.585938 293.558594 186.066406 293.878906 185.742188 L 302.535156 177.09375 C 302.691406 176.9375 302.902344 176.851562 303.121094 176.851562 C 303.335938 176.851562 303.542969 176.9375 303.699219 177.09375 L 347.84375 221.195312 C 348.160156 221.515625 348.160156 222.035156 347.84375 222.355469 L 339.183594 231.007812 C 339.027344 231.160156 338.820312 231.246094 338.601562 231.246094 "/>
<path style=" stroke:none;fill-rule:nonzero;fill:rgb(35.289001%,13.729858%,10.978699%);fill-opacity:1;" d="M 303.121094 176.03125 C 302.683594 176.03125 302.261719 176.203125 301.957031 176.511719 L 293.300781 185.164062 C 292.660156 185.804688 292.660156 186.84375 293.300781 187.484375 L 337.441406 231.589844 C 337.75 231.894531 338.167969 232.070312 338.601562 232.070312 C 339.039062 232.070312 339.457031 231.894531 339.765625 231.589844 L 348.417969 222.9375 C 349.0625 222.296875 349.0625 221.253906 348.417969 220.613281 L 304.28125 176.511719 C 303.972656 176.203125 303.554688 176.03125 303.121094 176.03125 Z M 303.121094 177.671875 L 347.261719 221.777344 L 338.601562 230.429688 L 294.460938 186.324219 L 303.121094 177.671875 "/>
<path style=" stroke:none;fill-rule:nonzero;fill:rgb(36.079407%,37.649536%,39.608765%);fill-opacity:1;" d="M 298.171875 182.613281 C 303.011719 182.667969 307.839844 184.503906 311.46875 188.132812 C 316.726562 193.382812 331.550781 214.445312 329.308594 221.136719 L 338.601562 230.429688 L 347.261719 221.777344 L 303.121094 177.671875 L 298.171875 182.613281 "/>
<path style=" stroke:none;fill-rule:nonzero;fill:rgb(62.748718%,64.309692%,63.919067%);fill-opacity:1;" d="M 293.882812 190.585938 C 290.277344 190.585938 286.886719 189.183594 284.335938 186.636719 C 280.726562 183.03125 279.46875 177.769531 281.046875 172.910156 C 281.132812 172.636719 281.359375 172.433594 281.636719 172.367188 L 281.832031 172.34375 C 282.042969 172.34375 282.253906 172.429688 282.410156 172.582031 L 290.710938 180.878906 C 291.070312 181.238281 291.546875 181.433594 292.050781 181.433594 C 292.558594 181.433594 293.03125 181.238281 293.390625 180.878906 L 297.667969 176.605469 C 298.40625 175.863281 298.40625 174.664062 297.667969 173.929688 L 289.371094 165.632812 C 289.167969 165.433594 289.085938 165.140625 289.152344 164.859375 C 289.21875 164.582031 289.425781 164.359375 289.695312 164.273438 C 291.050781 163.832031 292.457031 163.609375 293.886719 163.609375 C 297.492188 163.609375 300.878906 165.011719 303.429688 167.558594 C 308.691406 172.816406 308.691406 181.375 303.429688 186.632812 C 300.878906 189.179688 297.488281 190.585938 293.882812 190.585938 "/>
<path style=" stroke:none;fill-rule:nonzero;fill:rgb(35.289001%,13.729858%,10.978699%);fill-opacity:1;" d="M 293.886719 162.789062 C 292.375 162.789062 290.875 163.027344 289.441406 163.492188 C 288.898438 163.667969 288.488281 164.113281 288.351562 164.667969 C 288.21875 165.226562 288.382812 165.808594 288.789062 166.214844 L 297.089844 174.507812 C 297.507812 174.925781 297.503906 175.605469 297.085938 176.027344 L 292.8125 180.296875 C 292.605469 180.5 292.335938 180.613281 292.050781 180.613281 C 291.765625 180.613281 291.496094 180.5 291.292969 180.296875 L 282.992188 172.003906 C 282.679688 171.695312 282.257812 171.523438 281.832031 171.523438 C 281.699219 171.523438 281.570312 171.539062 281.445312 171.566406 C 280.890625 171.703125 280.441406 172.113281 280.265625 172.660156 C 278.589844 177.8125 279.925781 183.390625 283.753906 187.214844 C 286.460938 189.917969 290.058594 191.40625 293.882812 191.40625 C 297.710938 191.40625 301.304688 189.917969 304.011719 187.214844 C 309.59375 181.632812 309.59375 172.558594 304.011719 166.976562 C 301.304688 164.273438 297.710938 162.789062 293.886719 162.789062 Z M 293.886719 164.429688 C 297.128906 164.429688 300.371094 165.664062 302.847656 168.136719 C 307.800781 173.085938 307.800781 181.105469 302.847656 186.054688 C 300.375 188.527344 297.128906 189.765625 293.882812 189.765625 C 290.636719 189.765625 287.390625 188.527344 284.917969 186.054688 C 281.429688 182.566406 280.398438 177.554688 281.832031 173.164062 L 290.132812 181.457031 C 290.660156 181.988281 291.355469 182.253906 292.050781 182.253906 C 292.746094 182.253906 293.441406 181.988281 293.972656 181.457031 L 298.25 177.183594 C 299.308594 176.125 299.3125 174.40625 298.25 173.347656 L 289.949219 165.054688 C 291.226562 164.636719 292.558594 164.429688 293.886719 164.429688 "/>
<path style=" stroke:none;fill-rule:nonzero;fill:rgb(36.079407%,37.649536%,39.608765%);fill-opacity:1;" d="M 296.539062 164.714844 C 302.140625 172.136719 301.59375 182.976562 294.890625 189.722656 C 297.789062 189.496094 300.628906 188.273438 302.847656 186.054688 C 307.800781 181.105469 307.800781 173.085938 302.847656 168.136719 C 301.054688 166.347656 298.851562 165.207031 296.539062 164.714844 "/>
<g clip-path="url(#clip10)" clip-rule="nonzero">
<path style=" stroke:none;fill-rule:nonzero;fill:rgb(62.748718%,64.309692%,63.919067%);fill-opacity:1;" d="M 347.570312 244.230469 C 343.96875 244.230469 340.578125 242.832031 338.03125 240.28125 C 335.480469 237.734375 334.074219 234.347656 334.074219 230.746094 C 334.074219 227.140625 335.480469 223.753906 338.03125 221.207031 C 340.582031 218.65625 343.972656 217.253906 347.582031 217.253906 C 351.1875 217.253906 354.578125 218.65625 357.125 221.207031 C 360.738281 224.8125 362 230.074219 360.414062 234.933594 C 360.324219 235.203125 360.101562 235.410156 359.824219 235.476562 L 359.628906 235.496094 C 359.414062 235.496094 359.207031 235.410156 359.050781 235.257812 L 350.75 226.964844 C 350.394531 226.605469 349.917969 226.410156 349.414062 226.410156 C 348.90625 226.410156 348.429688 226.605469 348.070312 226.964844 L 343.792969 231.238281 C 343.433594 231.597656 343.238281 232.070312 343.238281 232.578125 C 343.238281 233.078125 343.433594 233.554688 343.792969 233.910156 L 352.097656 242.207031 C 352.300781 242.410156 352.382812 242.699219 352.316406 242.980469 C 352.25 243.257812 352.042969 243.480469 351.773438 243.566406 C 350.414062 244.011719 349.003906 244.230469 347.570312 244.230469 "/>
</g>
<g clip-path="url(#clip11)" clip-rule="nonzero">
<path style=" stroke:none;fill-rule:nonzero;fill:rgb(35.289001%,13.729858%,10.978699%);fill-opacity:1;" d="M 347.582031 216.433594 C 343.753906 216.433594 340.160156 217.921875 337.449219 220.625 C 334.746094 223.328125 333.257812 226.921875 333.257812 230.746094 C 333.257812 234.566406 334.746094 238.160156 337.449219 240.863281 C 340.152344 243.566406 343.746094 245.054688 347.570312 245.054688 C 349.085938 245.054688 350.585938 244.816406 352.023438 244.347656 C 352.570312 244.171875 352.980469 243.726562 353.113281 243.171875 C 353.25 242.617188 353.082031 242.03125 352.675781 241.625 L 344.378906 233.332031 C 344.171875 233.128906 344.058594 232.859375 344.058594 232.578125 C 344.058594 232.289062 344.171875 232.023438 344.375 231.820312 L 348.652344 227.546875 C 348.855469 227.339844 349.125 227.230469 349.414062 227.230469 C 349.699219 227.230469 349.96875 227.339844 350.167969 227.542969 L 358.46875 235.835938 C 358.78125 236.148438 359.203125 236.320312 359.628906 236.320312 C 359.761719 236.320312 359.886719 236.300781 360.015625 236.273438 C 360.570312 236.140625 361.015625 235.730469 361.195312 235.1875 C 362.875 230.035156 361.539062 224.457031 357.707031 220.625 C 355.003906 217.921875 351.40625 216.433594 347.582031 216.433594 Z M 347.582031 218.074219 C 350.824219 218.074219 354.074219 219.3125 356.546875 221.785156 C 360.039062 225.277344 361.066406 230.289062 359.628906 234.675781 L 351.332031 226.386719 C 350.804688 225.855469 350.105469 225.589844 349.414062 225.589844 C 348.714844 225.589844 348.019531 225.855469 347.492188 226.386719 L 343.214844 230.660156 C 342.152344 231.71875 342.152344 233.4375 343.214844 234.492188 L 351.515625 242.785156 C 350.238281 243.207031 348.90625 243.414062 347.570312 243.414062 C 344.328125 243.414062 341.085938 242.179688 338.613281 239.703125 C 333.660156 234.757812 333.660156 226.734375 338.613281 221.785156 C 341.089844 219.3125 344.335938 218.074219 347.582031 218.074219 "/>
</g>
<path style=" stroke:none;fill-rule:nonzero;fill:rgb(36.079407%,37.649536%,39.608765%);fill-opacity:1;" d="M 344.566406 243.050781 C 346.851562 243.605469 349.265625 243.519531 351.515625 242.785156 L 347.558594 238.835938 C 346.777344 240.347656 345.773438 241.765625 344.566406 243.050781 "/>
<g clip-path="url(#clip12)" clip-rule="nonzero">
<path style=" stroke:none;fill-rule:nonzero;fill:rgb(36.079407%,37.649536%,39.608765%);fill-opacity:1;" d="M 345.742188 218.210938 C 347.457031 220.425781 348.617188 222.957031 349.21875 225.597656 C 349.976562 225.542969 350.75 225.800781 351.332031 226.386719 L 359.628906 234.675781 C 361.066406 230.289062 360.039062 225.277344 356.546875 221.785156 C 353.601562 218.847656 349.566406 217.652344 345.742188 218.210938 "/>
</g>
<path style=" stroke:none;fill-rule:nonzero;fill:rgb(35.289001%,13.729858%,10.978699%);fill-opacity:1;" d="M 304.339844 191.332031 L 332.984375 219.953125 C 333.300781 220.269531 333.824219 220.269531 334.144531 219.953125 C 334.464844 219.628906 334.464844 219.109375 334.144531 218.789062 L 305.503906 190.171875 C 305.179688 189.851562 304.660156 189.851562 304.339844 190.171875 C 304.019531 190.492188 304.019531 191.011719 304.339844 191.332031 "/>
<path style=" stroke:none;fill-rule:nonzero;fill:rgb(35.289001%,13.729858%,10.978699%);fill-opacity:1;" d="M 306.96875 188.707031 L 335.609375 217.328125 C 335.929688 217.644531 336.449219 217.644531 336.773438 217.328125 C 337.09375 217.003906 337.09375 216.484375 336.773438 216.164062 L 308.128906 187.546875 C 307.808594 187.226562 307.289062 187.226562 306.96875 187.546875 C 306.644531 187.867188 306.644531 188.386719 306.96875 188.707031 "/>
<path style=" stroke:none;fill-rule:nonzero;fill:rgb(62.748718%,64.309692%,63.919067%);fill-opacity:1;" d="M 304.753906 232.851562 L 331.179688 206.449219 L 327.65625 202.929688 L 301.230469 229.332031 L 300.289062 228.394531 L 291.007812 236.253906 L 298.179688 243.414062 L 305.695312 233.792969 L 304.753906 232.851562 "/>
<path style=" stroke:none;fill-rule:nonzero;fill:rgb(35.289001%,13.729858%,10.978699%);fill-opacity:1;" d="M 304.753906 232.851562 L 305.335938 233.433594 L 331.761719 207.03125 C 331.917969 206.875 332.003906 206.667969 332.003906 206.449219 C 332.003906 206.230469 331.917969 206.023438 331.761719 205.871094 L 328.238281 202.347656 C 328.085938 202.195312 327.875 202.109375 327.65625 202.109375 C 327.441406 202.109375 327.226562 202.195312 327.074219 202.347656 L 301.230469 228.171875 L 300.871094 227.8125 C 300.570312 227.511719 300.085938 227.492188 299.757812 227.765625 L 290.480469 235.628906 C 290.304688 235.773438 290.199219 235.988281 290.191406 236.21875 C 290.179688 236.445312 290.265625 236.667969 290.429688 236.832031 L 297.59375 243.992188 C 297.761719 244.160156 297.992188 244.246094 298.226562 244.230469 C 298.460938 244.21875 298.679688 244.101562 298.824219 243.917969 L 306.34375 234.296875 C 306.597656 233.96875 306.570312 233.503906 306.277344 233.210938 L 305.339844 232.273438 L 304.753906 232.851562 L 305.335938 233.433594 L 304.753906 232.851562 L 304.175781 233.429688 L 304.601562 233.859375 L 298.101562 242.175781 L 292.222656 236.300781 L 300.246094 229.507812 L 300.648438 229.910156 C 300.804688 230.066406 301.011719 230.152344 301.230469 230.152344 C 301.453125 230.152344 301.65625 230.066406 301.8125 229.910156 L 327.65625 204.089844 L 330.019531 206.449219 L 304.175781 232.269531 C 303.855469 232.589844 303.855469 233.109375 304.175781 233.429688 L 304.753906 232.851562 "/>
<g clip-path="url(#clip13)" clip-rule="nonzero">
<path style=" stroke:none;fill-rule:nonzero;fill:rgb(97.648621%,90.589905%,11.759949%);fill-opacity:1;" d="M 336.097656 209.859375 C 333.867188 209.859375 331.777344 208.996094 330.203125 207.425781 L 326.683594 203.910156 C 325.109375 202.335938 324.242188 200.242188 324.242188 198.019531 C 324.242188 195.796875 325.105469 193.703125 326.683594 192.132812 L 351.117188 167.71875 C 352.695312 166.144531 354.785156 165.28125 357.015625 165.28125 C 359.238281 165.28125 361.332031 166.144531 362.90625 167.71875 L 366.421875 171.234375 C 369.671875 174.480469 369.671875 179.761719 366.421875 183.007812 L 341.988281 207.425781 C 340.414062 208.996094 338.320312 209.859375 336.097656 209.859375 "/>
</g>
<g clip-path="url(#clip14)" clip-rule="nonzero">
<path style=" stroke:none;fill-rule:nonzero;fill:rgb(35.289001%,13.729858%,10.978699%);fill-opacity:1;" d="M 357.015625 164.457031 C 354.570312 164.457031 352.269531 165.410156 350.539062 167.136719 L 326.097656 191.554688 C 324.371094 193.28125 323.417969 195.578125 323.417969 198.019531 C 323.417969 200.464844 324.375 202.761719 326.105469 204.488281 L 329.621094 208.003906 C 331.351562 209.730469 333.648438 210.679688 336.097656 210.679688 C 338.542969 210.679688 340.839844 209.730469 342.570312 208.003906 L 367.003906 183.589844 C 370.574219 180.019531 370.574219 174.21875 367.003906 170.652344 L 363.484375 167.136719 C 361.757812 165.410156 359.457031 164.457031 357.015625 164.457031 Z M 357.015625 166.101562 C 358.933594 166.101562 360.859375 166.835938 362.324219 168.296875 L 365.84375 171.8125 C 368.773438 174.742188 368.773438 179.496094 365.84375 182.429688 L 341.410156 206.84375 C 339.941406 208.308594 338.015625 209.042969 336.097656 209.042969 C 334.171875 209.042969 332.25 208.308594 330.785156 206.84375 L 327.265625 203.324219 C 324.332031 200.394531 324.332031 195.644531 327.261719 192.714844 L 351.699219 168.296875 C 353.164062 166.835938 355.089844 166.101562 357.015625 166.101562 "/>
</g>
<g clip-path="url(#clip15)" clip-rule="nonzero">
<path style=" stroke:none;fill-rule:nonzero;fill:rgb(77.249146%,62.348938%,12.939453%);fill-opacity:1;" d="M 365.84375 171.8125 L 362.324219 168.296875 C 361.550781 167.523438 360.644531 166.960938 359.683594 166.59375 C 363.046875 173.808594 361.785156 182.777344 355.898438 188.660156 C 348.894531 195.65625 337.515625 196.117188 329.9375 190.042969 L 327.261719 192.714844 C 324.332031 195.644531 324.332031 200.394531 327.265625 203.324219 L 330.785156 206.84375 C 333.714844 209.773438 338.472656 209.773438 341.410156 206.84375 L 365.84375 182.429688 C 368.773438 179.496094 368.773438 174.742188 365.84375 171.8125 "/>
</g>
<g clip-path="url(#clip16)" clip-rule="nonzero">
<path style=" stroke:none;fill-rule:nonzero;fill:rgb(100%,100%,100%);fill-opacity:1;" d="M 357.3125 169.824219 L 329.113281 197.992188 "/>
</g>
<g clip-path="url(#clip17)" clip-rule="nonzero">
<path style=" stroke:none;fill-rule:nonzero;fill:rgb(35.289001%,13.729858%,10.978699%);fill-opacity:1;" d="M 356.730469 169.242188 L 328.535156 197.410156 C 328.210938 197.730469 328.210938 198.25 328.535156 198.574219 C 328.851562 198.890625 329.371094 198.890625 329.695312 198.574219 L 357.890625 170.402344 C 358.210938 170.085938 358.210938 169.566406 357.890625 169.242188 C 357.570312 168.925781 357.050781 168.925781 356.730469 169.242188 "/>
</g>
<g clip-path="url(#clip18)" clip-rule="nonzero">
<path style=" stroke:none;fill-rule:nonzero;fill:rgb(100%,100%,100%);fill-opacity:1;" d="M 361.25 172.886719 L 331.859375 202.253906 "/>
</g>
<g clip-path="url(#clip19)" clip-rule="nonzero">
<path style=" stroke:none;fill-rule:nonzero;fill:rgb(35.289001%,13.729858%,10.978699%);fill-opacity:1;" d="M 360.667969 172.308594 L 331.277344 201.675781 C 330.957031 201.996094 330.957031 202.515625 331.277344 202.835938 C 331.601562 203.15625 332.117188 203.152344 332.441406 202.835938 L 361.828125 173.46875 C 362.152344 173.148438 362.148438 172.628906 361.828125 172.308594 C 361.507812 171.988281 360.988281 171.988281 360.667969 172.308594 "/>
</g>
<g clip-path="url(#clip20)" clip-rule="nonzero">
<path style=" stroke:none;fill-rule:nonzero;fill:rgb(100%,100%,100%);fill-opacity:1;" d="M 364.320312 176.824219 L 336.121094 204.992188 "/>
</g>
<g clip-path="url(#clip21)" clip-rule="nonzero">
<path style=" stroke:none;fill-rule:nonzero;fill:rgb(35.289001%,13.729858%,10.978699%);fill-opacity:1;" d="M 363.734375 176.246094 L 335.542969 204.410156 C 335.21875 204.734375 335.21875 205.253906 335.542969 205.570312 C 335.859375 205.894531 336.382812 205.894531 336.703125 205.570312 L 364.898438 177.40625 C 365.21875 177.085938 365.21875 176.5625 364.898438 176.246094 C 364.578125 175.925781 364.058594 175.925781 363.734375 176.246094 "/>
</g>
<g clip-path="url(#clip22)" clip-rule="nonzero">
<path style=" stroke:none;fill-rule:nonzero;fill:rgb(97.648621%,90.589905%,11.759949%);fill-opacity:1;" d="M 371.363281 153.480469 C 371.234375 153.480469 371.101562 153.464844 370.976562 153.425781 L 27.699219 59.46875 C 27.058594 59.292969 26.617188 58.714844 26.617188 58.050781 L 26.617188 33.089844 C 26.617188 32.632812 26.828125 32.199219 27.195312 31.921875 C 27.457031 31.722656 27.769531 31.621094 28.089844 31.621094 C 28.21875 31.621094 28.351562 31.636719 28.476562 31.671875 L 371.753906 125.632812 C 372.394531 125.808594 372.835938 126.386719 372.835938 127.050781 L 372.835938 152.011719 C 372.835938 152.472656 372.625 152.902344 372.257812 153.179688 C 371.996094 153.378906 371.683594 153.480469 371.363281 153.480469 "/>
</g>
<g clip-path="url(#clip23)" clip-rule="nonzero">
<path style=" stroke:none;fill-rule:nonzero;fill:rgb(35.289001%,13.729858%,10.978699%);fill-opacity:1;" d="M 28.089844 30.148438 C 27.449219 30.148438 26.820312 30.355469 26.304688 30.753906 C 25.574219 31.308594 25.144531 32.175781 25.144531 33.089844 L 25.144531 58.050781 C 25.144531 59.375 26.03125 60.539062 27.3125 60.890625 L 370.585938 154.847656 C 370.84375 154.917969 371.101562 154.953125 371.363281 154.953125 C 372.003906 154.953125 372.628906 154.742188 373.148438 154.347656 C 373.878906 153.792969 374.308594 152.929688 374.308594 152.011719 L 374.308594 127.050781 C 374.308594 125.722656 373.421875 124.5625 372.140625 124.214844 L 28.867188 30.253906 C 28.609375 30.183594 28.347656 30.148438 28.089844 30.148438 Z M 28.089844 33.089844 L 371.363281 127.050781 L 371.363281 152.011719 L 28.089844 58.050781 L 28.089844 33.089844 "/>
</g>
<g clip-path="url(#clip24)" clip-rule="nonzero">
<path style=" stroke:none;fill-rule:nonzero;fill:rgb(77.249146%,62.348938%,12.939453%);fill-opacity:1;" d="M 371.363281 140.953125 C 371.199219 140.921875 371.035156 140.886719 370.867188 140.855469 C 305.28125 127.132812 199.753906 99.332031 28.089844 52.515625 L 28.089844 58.398438 L 371.363281 152.359375 L 371.363281 140.953125 "/>
</g>
<path style=" stroke:none;fill-rule:nonzero;fill:rgb(35.289001%,13.729858%,10.978699%);fill-opacity:1;" d="M 50.875 39.21875 L 28.089844 50.980469 L 28.089844 58.074219 L 35.746094 60.171875 L 67.496094 43.773438 L 50.875 39.21875 "/>
<path style=" stroke:none;fill-rule:nonzero;fill:rgb(35.289001%,13.729858%,10.978699%);fill-opacity:1;" d="M 87.203125 49.164062 L 55.453125 65.5625 L 72.074219 70.113281 L 103.824219 53.714844 L 87.203125 49.164062 "/>
<path style=" stroke:none;fill-rule:nonzero;fill:rgb(35.289001%,13.729858%,10.978699%);fill-opacity:1;" d="M 123.535156 59.109375 L 91.785156 75.511719 L 108.410156 80.054688 L 140.152344 63.660156 L 123.535156 59.109375 "/>
<path style=" stroke:none;fill-rule:nonzero;fill:rgb(35.289001%,13.729858%,10.978699%);fill-opacity:1;" d="M 159.871094 69.054688 L 128.101562 85.445312 L 144.738281 90.003906 L 176.492188 73.605469 L 159.871094 69.054688 "/>
<path style=" stroke:none;fill-rule:nonzero;fill:rgb(35.289001%,13.729858%,10.978699%);fill-opacity:1;" d="M 196.199219 79 L 164.441406 95.394531 L 181.070312 99.945312 L 212.820312 83.546875 L 196.199219 79 "/>
<path style=" stroke:none;fill-rule:nonzero;fill:rgb(35.289001%,13.729858%,10.978699%);fill-opacity:1;" d="M 232.527344 88.941406 L 200.769531 105.339844 L 217.382812 109.886719 L 249.152344 93.492188 L 232.527344 88.941406 "/>
<path style=" stroke:none;fill-rule:nonzero;fill:rgb(35.289001%,13.729858%,10.978699%);fill-opacity:1;" d="M 268.851562 98.886719 L 237.097656 115.28125 L 253.722656 119.832031 L 285.488281 103.4375 L 268.851562 98.886719 "/>
<path style=" stroke:none;fill-rule:nonzero;fill:rgb(35.289001%,13.729858%,10.978699%);fill-opacity:1;" d="M 305.195312 108.832031 L 273.425781 125.226562 L 290.058594 129.777344 L 321.808594 113.378906 L 305.195312 108.832031 "/>
<g clip-path="url(#clip25)" clip-rule="nonzero">
<path style=" stroke:none;fill-rule:nonzero;fill:rgb(35.289001%,13.729858%,10.978699%);fill-opacity:1;" d="M 341.519531 118.773438 L 309.761719 135.171875 L 326.378906 139.722656 L 358.140625 123.324219 L 341.519531 118.773438 "/>
</g>
<g clip-path="url(#clip26)" clip-rule="nonzero">
<path style=" stroke:none;fill-rule:nonzero;fill:rgb(35.289001%,13.729858%,10.978699%);fill-opacity:1;" d="M 371.363281 132.066406 L 346.089844 145.117188 L 362.710938 149.664062 L 371.363281 145.203125 L 371.363281 132.066406 "/>
</g>
</g>
</svg>
