<?xml version="1.0" encoding="UTF-8"?>
<svg xmlns="http://www.w3.org/2000/svg" xmlns:xlink="http://www.w3.org/1999/xlink" width="1190.25pt" height="1683.749945pt" viewBox="0 0 1190.25 1683.749945" version="1.2">
<defs>
<clipPath id="clip1">
  <path d="M 357 604 L 834 604 L 834 1080 L 357 1080 Z M 357 604 "/>
</clipPath>
<clipPath id="clip2">
  <path d="M 261.226562 799.210938 L 638.078125 508.175781 L 929.117188 885.023438 L 552.265625 1176.0625 Z M 261.226562 799.210938 "/>
</clipPath>
<clipPath id="clip3">
  <path d="M 261.226562 799.210938 L 638.078125 508.175781 L 929.117188 885.023438 L 552.265625 1176.0625 Z M 261.226562 799.210938 "/>
</clipPath>
<clipPath id="clip4">
  <path d="M 618 663 L 793 663 L 793 850 L 618 850 Z M 618 663 "/>
</clipPath>
<clipPath id="clip5">
  <path d="M 261.226562 799.210938 L 638.078125 508.175781 L 929.117188 885.023438 L 552.265625 1176.0625 Z M 261.226562 799.210938 "/>
</clipPath>
<clipPath id="clip6">
  <path d="M 261.226562 799.210938 L 638.078125 508.175781 L 929.117188 885.023438 L 552.265625 1176.0625 Z M 261.226562 799.210938 "/>
</clipPath>
<clipPath id="clip7">
  <path d="M 583.957031 772.070312 L 746.433594 646.589844 L 824.078125 747.125 L 661.597656 872.605469 Z M 583.957031 772.070312 "/>
</clipPath>
<clipPath id="clip8">
  <path d="M 583.957031 772.070312 L 745.472656 647.335938 L 823.113281 747.871094 L 661.597656 872.605469 Z M 583.957031 772.070312 "/>
</clipPath>
<clipPath id="clip9">
  <path d="M 711 657 L 800 657 L 800 749 L 711 749 Z M 711 657 "/>
</clipPath>
<clipPath id="clip10">
  <path d="M 261.226562 799.210938 L 638.078125 508.175781 L 929.117188 885.023438 L 552.265625 1176.0625 Z M 261.226562 799.210938 "/>
</clipPath>
<clipPath id="clip11">
  <path d="M 261.226562 799.210938 L 638.078125 508.175781 L 929.117188 885.023438 L 552.265625 1176.0625 Z M 261.226562 799.210938 "/>
</clipPath>
<clipPath id="clip12">
  <path d="M 702.398438 690.328125 L 751.140625 652.683594 L 802.117188 718.691406 L 753.375 756.335938 Z M 702.398438 690.328125 "/>
</clipPath>
<clipPath id="clip13">
  <path d="M 702.398438 690.328125 L 750.175781 653.429688 L 801.152344 719.4375 L 753.375 756.335938 Z M 702.398438 690.328125 "/>
</clipPath>
<clipPath id="clip14">
  <path d="M 398 840 L 565 840 L 565 1020 L 398 1020 Z M 398 840 "/>
</clipPath>
<clipPath id="clip15">
  <path d="M 261.226562 799.210938 L 638.078125 508.175781 L 929.117188 885.023438 L 552.265625 1176.0625 Z M 261.226562 799.210938 "/>
</clipPath>
<clipPath id="clip16">
  <path d="M 261.226562 799.210938 L 638.078125 508.175781 L 929.117188 885.023438 L 552.265625 1176.0625 Z M 261.226562 799.210938 "/>
</clipPath>
<clipPath id="clip17">
  <path d="M 397 956 L 459 956 L 459 1021 L 397 1021 Z M 397 956 "/>
</clipPath>
<clipPath id="clip18">
  <path d="M 261.226562 799.210938 L 638.078125 508.175781 L 929.117188 885.023438 L 552.265625 1176.0625 Z M 261.226562 799.210938 "/>
</clipPath>
<clipPath id="clip19">
  <path d="M 261.226562 799.210938 L 638.078125 508.175781 L 929.117188 885.023438 L 552.265625 1176.0625 Z M 261.226562 799.210938 "/>
</clipPath>
<clipPath id="clip20">
  <path d="M 575 849 L 777 849 L 777 1041 L 575 1041 Z M 575 849 "/>
</clipPath>
<clipPath id="clip21">
  <path d="M 261.226562 799.210938 L 638.078125 508.175781 L 929.117188 885.023438 L 552.265625 1176.0625 Z M 261.226562 799.210938 "/>
</clipPath>
<clipPath id="clip22">
  <path d="M 261.226562 799.210938 L 638.078125 508.175781 L 929.117188 885.023438 L 552.265625 1176.0625 Z M 261.226562 799.210938 "/>
</clipPath>
<clipPath id="clip23">
  <path d="M 553.050781 891.589844 L 653.582031 813.949219 L 791.613281 992.675781 L 691.078125 1070.316406 Z M 553.050781 891.589844 "/>
</clipPath>
<clipPath id="clip24">
  <path d="M 553.050781 891.589844 L 653.582031 813.949219 L 790.867188 991.710938 L 690.335938 1069.351562 Z M 553.050781 891.589844 "/>
</clipPath>
<clipPath id="clip25">
  <path d="M 413 643 L 615 643 L 615 835 L 413 835 Z M 413 643 "/>
</clipPath>
<clipPath id="clip26">
  <path d="M 261.226562 799.210938 L 638.078125 508.175781 L 929.117188 885.023438 L 552.265625 1176.0625 Z M 261.226562 799.210938 "/>
</clipPath>
<clipPath id="clip27">
  <path d="M 261.226562 799.210938 L 638.078125 508.175781 L 929.117188 885.023438 L 552.265625 1176.0625 Z M 261.226562 799.210938 "/>
</clipPath>
<clipPath id="clip28">
  <path d="M 470 703 L 516 703 L 516 748 L 470 748 Z M 470 703 "/>
</clipPath>
<clipPath id="clip29">
  <path d="M 261.226562 799.210938 L 638.078125 508.175781 L 929.117188 885.023438 L 552.265625 1176.0625 Z M 261.226562 799.210938 "/>
</clipPath>
<clipPath id="clip30">
  <path d="M 261.226562 799.210938 L 638.078125 508.175781 L 929.117188 885.023438 L 552.265625 1176.0625 Z M 261.226562 799.210938 "/>
</clipPath>
<clipPath id="clip31">
  <path d="M 484 710 L 514 710 L 514 740 L 484 740 Z M 484 710 "/>
</clipPath>
<clipPath id="clip32">
  <path d="M 261.226562 799.210938 L 638.078125 508.175781 L 929.117188 885.023438 L 552.265625 1176.0625 Z M 261.226562 799.210938 "/>
</clipPath>
<clipPath id="clip33">
  <path d="M 261.226562 799.210938 L 638.078125 508.175781 L 929.117188 885.023438 L 552.265625 1176.0625 Z M 261.226562 799.210938 "/>
</clipPath>
</defs>
<g id="surface1">
<g clip-path="url(#clip1)" clip-rule="nonzero">
<g clip-path="url(#clip2)" clip-rule="nonzero">
<g clip-path="url(#clip3)" clip-rule="nonzero">
<path style=" stroke:none;fill-rule:evenodd;fill:rgb(14.898682%,19.60907%,21.958923%);fill-opacity:1;" d="M 740.625 1030.507812 C 844.394531 950.367188 863.664062 800.378906 783.527344 696.609375 C 703.386719 592.84375 553.394531 573.570312 449.628906 653.707031 C 345.859375 733.84375 326.589844 883.84375 406.726562 987.609375 C 486.863281 1091.375 636.859375 1110.644531 740.625 1030.507812 "/>
</g>
</g>
</g>
<g clip-path="url(#clip4)" clip-rule="nonzero">
<g clip-path="url(#clip5)" clip-rule="nonzero">
<g clip-path="url(#clip6)" clip-rule="nonzero">
<g clip-path="url(#clip7)" clip-rule="nonzero">
<g clip-path="url(#clip8)" clip-rule="nonzero">
<path style=" stroke:none;fill-rule:evenodd;fill:rgb(94.898987%,82.749939%,72.549438%);fill-opacity:1;" d="M 728.96875 753.949219 C 743.460938 740.925781 767.160156 725.421875 792.75 709.421875 C 789.828125 705.085938 786.765625 700.808594 783.527344 696.609375 C 774.234375 684.578125 764.011719 673.699219 753.046875 663.960938 C 734.144531 687.570312 715.796875 712.453125 702.460938 728.078125 C 696.769531 733.875 698.484375 733.265625 691.21875 733.121094 C 678.640625 732.875 675.089844 733.855469 662.121094 736.625 C 643.367188 740.640625 648.628906 740.746094 630.171875 738.019531 C 625.75 737.367188 626.03125 741.902344 626.945312 744.097656 C 629.484375 750.222656 634.734375 753.273438 640.820312 753.582031 L 651.265625 754.082031 C 653.957031 754.269531 659.300781 754.308594 661.742188 756.683594 C 664.988281 759.84375 663.339844 767.289062 661.203125 769.960938 C 654.328125 778.542969 645.390625 785.734375 637.875 793.550781 C 636.382812 795.101562 635.605469 795.421875 634.222656 796.839844 C 633.046875 798.042969 631.792969 799.480469 630.574219 800.605469 C 627.347656 803.578125 614.464844 813.972656 620.386719 818.484375 C 623.84375 821.121094 633.765625 812.175781 637.214844 809.175781 C 642.929688 804.210938 651.179688 797.707031 657.453125 793.800781 C 660.449219 791.933594 661.582031 791.34375 664.171875 792.105469 C 664.398438 794.808594 663.460938 796.839844 662.214844 799.523438 C 661.066406 802.007812 659.652344 804.449219 658.398438 806.753906 C 654.632812 813.695312 645.664062 828.6875 642.1875 836.117188 C 637.671875 845.761719 645.070312 847.878906 647.492188 845.394531 C 651.675781 841.09375 668.914062 810.601562 675.636719 803.691406 C 676.191406 803.125 676.003906 803.613281 676.933594 802.804688 C 678.253906 804.324219 677.273438 806.753906 676.441406 809.34375 C 674.175781 816.367188 670.382812 825.082031 668.113281 832.289062 C 667.75 833.449219 667.3125 834.503906 666.917969 835.566406 C 664.976562 840.785156 659.839844 849.476562 666.902344 849.828125 C 670.734375 850.015625 673.476562 844.4375 674.789062 841.765625 C 677.542969 836.15625 680.757812 829.070312 682.644531 823.394531 L 687.359375 810.933594 C 688.476562 807.996094 691.527344 798.5625 694.75 801.695312 C 696.484375 803.386719 695.601562 809.457031 695.378906 811.691406 C 694.980469 815.753906 694.613281 817.21875 694.695312 821.492188 C 694.71875 822.671875 694.617188 822.972656 694.527344 824.105469 L 694.605469 831.496094 C 694.792969 845.628906 702.316406 844.914062 704.292969 834.84375 C 705.375 829.347656 704.785156 824.816406 705.660156 818.085938 C 707.625 802.90625 709.484375 802.234375 713.371094 789.921875 L 722.164062 764.574219 C 722.558594 763.445312 722.667969 762.925781 723.164062 761.734375 C 723.871094 760.027344 726.117188 757.179688 728.96875 753.949219 "/>
</g>
</g>
</g>
</g>
</g>
<g clip-path="url(#clip9)" clip-rule="nonzero">
<g clip-path="url(#clip10)" clip-rule="nonzero">
<g clip-path="url(#clip11)" clip-rule="nonzero">
<g clip-path="url(#clip12)" clip-rule="nonzero">
<g clip-path="url(#clip13)" clip-rule="nonzero">
<path style=" stroke:none;fill-rule:evenodd;fill:rgb(21.958923%,71.369934%,100%);fill-opacity:1;" d="M 745.980469 657.902344 C 734.609375 669.402344 723.15625 681.367188 711.628906 693.804688 C 720.050781 715.015625 734.53125 733.347656 755.058594 748.800781 C 770.746094 738.667969 785.539062 729.054688 799.441406 719.953125 C 794.65625 711.964844 789.359375 704.164062 783.527344 696.609375 C 772.265625 682.027344 759.644531 669.117188 745.980469 657.902344 "/>
</g>
</g>
</g>
</g>
</g>
<g clip-path="url(#clip14)" clip-rule="nonzero">
<g clip-path="url(#clip15)" clip-rule="nonzero">
<g clip-path="url(#clip16)" clip-rule="nonzero">
<path style=" stroke:none;fill-rule:evenodd;fill:rgb(94.898987%,82.749939%,72.549438%);fill-opacity:1;" d="M 454.648438 936.691406 C 441.625 948.398438 421.160156 962.113281 398.574219 976.382812 C 401.175781 980.175781 403.878906 983.925781 406.726562 987.609375 C 415.761719 999.3125 425.683594 1009.933594 436.308594 1019.464844 C 453.148438 998.121094 469.171875 976.605469 481.15625 962.5625 C 486.851562 956.773438 485.136719 957.382812 492.394531 957.523438 C 504.972656 957.773438 508.53125 956.792969 521.496094 954.019531 C 540.253906 950.007812 534.988281 949.898438 553.445312 952.628906 C 557.871094 953.277344 557.589844 948.742188 556.671875 946.546875 C 554.136719 940.425781 548.886719 937.375 542.800781 937.0625 L 532.351562 936.558594 C 529.660156 936.371094 524.316406 936.335938 521.875 933.960938 C 518.632812 930.804688 520.277344 923.351562 522.414062 920.6875 C 529.289062 912.105469 538.226562 904.90625 545.746094 897.097656 C 547.238281 895.546875 548.011719 895.21875 549.398438 893.808594 C 550.570312 892.605469 551.824219 891.160156 553.042969 890.042969 C 556.269531 887.070312 569.15625 876.675781 563.230469 872.164062 C 559.777344 869.523438 549.855469 878.472656 546.402344 881.472656 C 540.691406 886.4375 532.441406 892.941406 526.164062 896.84375 C 523.167969 898.710938 522.035156 899.304688 519.449219 898.542969 C 519.21875 895.835938 520.15625 893.800781 521.398438 891.121094 C 522.554688 888.640625 523.964844 886.195312 525.214844 883.894531 C 528.984375 876.953125 537.953125 861.953125 541.433594 854.53125 C 545.945312 844.882812 538.546875 842.769531 536.132812 845.25 C 531.945312 849.550781 514.703125 880.046875 507.980469 886.949219 C 507.429688 887.523438 507.617188 887.035156 506.683594 887.835938 C 505.363281 886.316406 506.347656 883.890625 507.175781 881.308594 C 509.441406 874.277344 513.234375 865.558594 515.5 858.359375 C 515.867188 857.195312 516.304688 856.140625 516.695312 855.078125 C 518.640625 849.859375 523.777344 841.167969 516.714844 840.820312 C 512.878906 840.632812 510.140625 846.203125 508.828125 848.875 C 506.078125 854.488281 502.855469 861.574219 500.976562 867.25 L 496.261719 879.710938 C 495.136719 882.652344 492.085938 892.082031 488.867188 888.949219 C 487.132812 887.261719 488.019531 881.191406 488.238281 878.949219 C 488.636719 874.890625 489.003906 873.425781 488.925781 869.15625 C 488.902344 867.976562 489.007812 867.671875 489.09375 866.542969 L 489.011719 859.144531 C 488.828125 845.019531 481.300781 845.726562 479.324219 855.796875 C 478.246094 861.296875 478.832031 865.835938 477.960938 872.5625 C 475.988281 887.738281 474.132812 888.410156 470.246094 900.722656 L 461.449219 926.070312 C 461.054688 927.203125 460.949219 927.722656 460.457031 928.914062 C 459.746094 930.617188 457.503906 933.46875 454.648438 936.691406 "/>
</g>
</g>
</g>
<g clip-path="url(#clip17)" clip-rule="nonzero">
<g clip-path="url(#clip18)" clip-rule="nonzero">
<g clip-path="url(#clip19)" clip-rule="nonzero">
<path style=" stroke:none;fill-rule:evenodd;fill:rgb(1.179504%,59.609985%,61.959839%);fill-opacity:1;" d="M 426.566406 956.785156 C 433.292969 959.359375 439.335938 963.613281 444.695312 969.550781 C 450.015625 975.441406 454.660156 982.996094 458.628906 992.195312 C 458.765625 992.503906 458.820312 992.839844 458.785156 993.171875 C 458.75 993.507812 458.625 993.84375 458.398438 994.132812 L 455.1875 998.289062 C 449.5625 1005.5625 443.695312 1013.152344 437.722656 1020.71875 C 426.5625 1010.863281 416.160156 999.828125 406.726562 987.609375 C 403.492188 983.421875 400.429688 979.148438 397.519531 974.816406 C 407.144531 968.734375 416.382812 962.753906 424.824219 956.992188 C 425.070312 956.820312 425.367188 956.710938 425.667969 956.671875 C 425.964844 956.640625 426.277344 956.671875 426.566406 956.785156 "/>
</g>
</g>
</g>
<g clip-path="url(#clip20)" clip-rule="nonzero">
<g clip-path="url(#clip21)" clip-rule="nonzero">
<g clip-path="url(#clip22)" clip-rule="nonzero">
<g clip-path="url(#clip23)" clip-rule="nonzero">
<g clip-path="url(#clip24)" clip-rule="nonzero">
<path style=" stroke:none;fill-rule:evenodd;fill:rgb(94.898987%,82.749939%,72.549438%);fill-opacity:1;" d="M 671.761719 959.347656 C 687.664062 977.042969 707.277344 1008.46875 726.960938 1040.304688 C 731.59375 1037.21875 736.152344 1033.960938 740.625 1030.507812 C 754.175781 1020.042969 766.277344 1008.398438 776.917969 995.835938 C 749.457031 972.765625 716.667969 949.085938 697.628906 932.835938 C 691.839844 927.140625 692.445312 928.859375 692.59375 921.597656 C 692.839844 909.019531 691.859375 905.460938 689.089844 892.5 C 685.074219 873.746094 684.96875 879.007812 687.695312 860.542969 C 688.347656 856.125 683.8125 856.40625 681.613281 857.320312 C 675.492188 859.863281 672.441406 865.105469 672.128906 871.191406 L 671.628906 881.640625 C 671.4375 884.332031 671.40625 889.675781 669.027344 892.117188 C 665.871094 895.359375 658.421875 893.71875 655.757812 891.578125 C 647.171875 884.703125 639.972656 875.765625 632.164062 868.253906 C 630.609375 866.753906 630.285156 865.976562 628.871094 864.597656 C 627.667969 863.421875 626.230469 862.167969 625.113281 860.949219 C 622.136719 857.726562 611.742188 844.835938 607.226562 850.761719 C 604.589844 854.222656 613.539062 864.136719 616.539062 867.59375 C 621.5 873.304688 628.003906 881.554688 631.910156 887.824219 C 633.78125 890.828125 634.367188 891.957031 633.609375 894.550781 C 630.902344 894.769531 628.871094 893.835938 626.1875 892.59375 C 623.707031 891.445312 621.265625 890.03125 618.960938 888.777344 C 612.023438 885.011719 597.023438 876.039062 589.601562 872.5625 C 579.949219 868.046875 577.835938 875.445312 580.320312 877.863281 C 584.617188 882.054688 615.113281 899.292969 622.019531 906.015625 C 622.589844 906.570312 622.101562 906.382812 622.90625 907.308594 C 621.386719 908.632812 618.960938 907.648438 616.375 906.816406 C 609.34375 904.550781 600.628906 900.757812 593.425781 898.492188 C 592.265625 898.128906 591.210938 897.691406 590.144531 897.296875 C 584.929688 895.351562 576.238281 890.214844 575.890625 897.277344 C 575.699219 901.113281 581.269531 903.851562 583.945312 905.167969 C 589.554688 907.921875 596.644531 911.136719 602.320312 913.019531 L 614.78125 917.734375 C 617.71875 918.855469 627.148438 921.90625 624.011719 925.125 C 622.324219 926.859375 616.257812 925.972656 614.015625 925.753906 C 609.957031 925.355469 608.496094 924.992188 604.21875 925.070312 C 603.042969 925.089844 602.738281 924.992188 601.613281 924.902344 L 594.214844 924.984375 C 580.089844 925.167969 580.796875 932.695312 590.867188 934.671875 C 596.363281 935.746094 600.902344 935.160156 607.632812 936.035156 C 622.800781 938.003906 623.480469 939.863281 635.792969 943.746094 L 661.140625 952.542969 C 662.265625 952.9375 662.789062 953.039062 663.980469 953.539062 C 665.683594 954.246094 668.539062 956.492188 671.761719 959.347656 "/>
</g>
</g>
</g>
</g>
</g>
<g clip-path="url(#clip25)" clip-rule="nonzero">
<g clip-path="url(#clip26)" clip-rule="nonzero">
<g clip-path="url(#clip27)" clip-rule="nonzero">
<path style=" stroke:none;fill-rule:evenodd;fill:rgb(94.898987%,82.749939%,72.549438%);fill-opacity:1;" d="M 518.488281 724.875 C 502.589844 707.171875 482.980469 675.746094 463.296875 643.910156 C 458.660156 646.996094 454.097656 650.253906 449.628906 653.707031 C 436.074219 664.175781 423.976562 675.820312 413.339844 688.382812 C 440.800781 711.453125 473.585938 735.132812 492.617188 751.382812 C 498.414062 757.070312 497.808594 755.359375 497.664062 762.621094 C 497.417969 775.199219 498.390625 778.757812 501.164062 791.722656 C 505.179688 810.472656 505.285156 805.214844 502.5625 823.671875 C 501.90625 828.089844 506.441406 827.8125 508.644531 826.898438 C 514.761719 824.359375 517.8125 819.109375 518.121094 813.023438 L 518.625 802.578125 C 518.808594 799.882812 518.851562 794.539062 521.222656 792.105469 C 524.382812 788.855469 531.832031 790.496094 534.5 792.636719 C 543.082031 799.515625 550.28125 808.449219 558.089844 815.96875 C 559.640625 817.460938 559.960938 818.238281 561.378906 819.621094 C 562.585938 820.796875 564.019531 822.050781 565.144531 823.265625 C 568.117188 826.492188 578.507812 839.378906 583.027344 833.457031 C 585.660156 829.996094 576.710938 820.082031 573.714844 816.628906 C 568.75 810.914062 562.246094 802.664062 558.34375 796.386719 C 556.472656 793.390625 555.882812 792.257812 556.644531 789.667969 C 559.347656 789.441406 561.378906 790.382812 564.0625 791.628906 C 566.546875 792.773438 568.988281 794.1875 571.296875 795.441406 C 578.234375 799.207031 593.230469 808.179688 600.65625 811.652344 C 610.300781 816.171875 612.417969 808.769531 609.9375 806.355469 C 605.632812 802.167969 575.140625 784.929688 568.234375 778.203125 C 567.664062 777.652344 568.152344 777.839844 567.347656 776.914062 C 568.863281 775.589844 571.292969 776.570312 573.878906 777.40625 C 580.90625 779.671875 589.625 783.460938 596.828125 785.726562 C 597.992188 786.09375 599.046875 786.527344 600.105469 786.925781 C 605.328125 788.863281 614.015625 794.003906 614.367188 786.9375 C 614.554688 783.105469 608.976562 780.363281 606.308594 779.050781 C 600.699219 776.304688 593.609375 773.082031 587.933594 771.195312 L 575.472656 766.484375 C 572.53125 765.367188 563.101562 762.3125 566.238281 759.09375 C 567.925781 757.359375 574 758.242188 576.230469 758.460938 C 580.296875 758.863281 581.757812 759.230469 586.03125 759.148438 C 587.214844 759.125 587.515625 759.230469 588.644531 759.3125 L 596.039062 759.238281 C 610.164062 759.050781 609.457031 751.523438 599.382812 749.550781 C 593.886719 748.46875 589.355469 749.058594 582.625 748.183594 C 567.449219 746.214844 566.773438 744.355469 554.460938 740.472656 L 529.113281 731.675781 C 527.984375 731.28125 527.464844 731.175781 526.273438 730.679688 C 524.566406 729.972656 521.71875 727.726562 518.488281 724.875 "/>
</g>
</g>
</g>
<g clip-path="url(#clip28)" clip-rule="nonzero">
<g clip-path="url(#clip29)" clip-rule="nonzero">
<g clip-path="url(#clip30)" clip-rule="nonzero">
<path style=" stroke:none;fill-rule:evenodd;fill:rgb(100%,56.858826%,30.198669%);fill-opacity:1;" d="M 515.316406 717.671875 C 515.515625 716.925781 504.6875 702.230469 504.070312 703.367188 C 500.054688 712.640625 486.132812 726.109375 470.207031 735.855469 C 469.09375 737.195312 481.96875 748.613281 484.042969 747.585938 C 502.089844 736.847656 509.867188 730.183594 515.316406 717.671875 "/>
</g>
</g>
</g>
<g clip-path="url(#clip31)" clip-rule="nonzero">
<g clip-path="url(#clip32)" clip-rule="nonzero">
<g clip-path="url(#clip33)" clip-rule="nonzero">
<path style=" stroke:none;fill-rule:evenodd;fill:rgb(100%,56.858826%,30.198669%);fill-opacity:1;" d="M 507.78125 736.675781 C 501.589844 741.457031 492.621094 740.226562 487.757812 733.929688 C 482.894531 727.628906 483.96875 718.640625 490.160156 713.859375 C 496.351562 709.078125 505.324219 710.304688 510.191406 716.605469 C 515.050781 722.90625 513.976562 731.894531 507.78125 736.675781 "/>
</g>
</g>
</g>
</g>
</svg>
